<svg width="60" height="32" viewBox="0 0 60 32" fill="none" xmlns="http://www.w3.org/2000/svg">
<g clip-path="url(#clip0_0_83)">
<path d="M0 12.17C0.37 11.79 0.69 11.32 1.13 11.05C6.71 7.72999 12.32 4.44999 17.91 1.13999C19.21 0.379989 20.6 -1.11219e-05 22.09 -1.11219e-05C23.69 -1.11219e-05 25.29 -0.0100111 26.89 -1.11219e-05C28.44 0.00998888 29.25 0.989989 28.97 2.52999C28.63 4.37999 27.13 5.66999 25.23 5.69999C24.12 5.71999 23 5.68999 21.89 5.70999C21.63 5.70999 21.33 5.74999 21.11 5.87999C18.1 7.60999 15.1 9.35999 12.1 11.1C12.05 11.13 12.02 11.17 11.86 11.31C12.33 11.31 12.68 11.31 13.04 11.31C13.79 11.32 14.18 11.61 14.18 12.18C14.18 12.75 13.79 13.07 13.05 13.07C9.54 13.07 6.02 13.07 2.51 13.07C2.28 13.07 2.05 13.07 1.77 13.07C1.77 14.1 1.76 15.07 1.78 16.04C1.78 16.17 1.94 16.33 2.07 16.43C2.52 16.77 2.99 17.09 3.44 17.43C4.48 18.23 5.07 19.29 5.18 20.62C5.3 22.06 5.33 23.52 5.57 24.93C6.05 27.68 8.27 29.8 11.06 29.96C13.52 30.1 16.04 30.15 18.47 29.8C22.81 29.17 26.05 25.18 26.15 20.8C26.17 20.14 26.2 19.46 26.38 18.83C26.87 17.14 28.56 16.02 30.27 16.15C32.06 16.29 33.54 17.67 33.77 19.46C33.9 20.46 33.85 21.5 34.06 22.48C34.97 26.73 38.35 29.67 42.8 30C44.74 30.15 46.71 30.13 48.65 30.01C52.06 29.79 54.34 27.31 54.58 23.76C54.65 22.73 54.74 21.7 54.81 20.66C54.9 19.27 55.47 18.05 56.67 17.38C57.99 16.63 58.49 15.66 58.24 14.21C58.18 13.87 58.23 13.51 58.23 13.06C58 13.06 57.8 13.06 57.59 13.06C51.67 13.06 45.76 13.07 39.84 13.05C38.68 13.05 37.59 13.26 36.58 13.82C35.35 14.5 34.04 14.55 32.72 14.21C30.9 13.73 29.1 13.73 27.28 14.21C25.87 14.58 24.53 14.39 23.19 13.75C22.39 13.37 21.45 13.19 20.56 13.09C19.6 12.98 18.61 13.07 17.63 13.06C16.95 13.05 16.54 12.72 16.53 12.18C16.52 11.65 16.93 11.31 17.61 11.3C18.53 11.29 19.45 11.31 20.36 11.3C21.7 11.29 22.95 11.58 24.12 12.23C24.91 12.66 25.75 12.78 26.61 12.54C28.85 11.94 31.08 11.93 33.32 12.53C34.18 12.76 35.02 12.66 35.81 12.23C37.02 11.57 38.31 11.28 39.69 11.29C42.27 11.31 44.85 11.29 47.42 11.29C47.61 11.29 47.79 11.29 47.98 11.29C47.99 11.25 48.01 11.21 48.02 11.16C47.81 11.04 47.6 10.92 47.4 10.8C46.81 10.45 46.62 9.96999 46.89 9.49999C47.15 9.01999 47.67 8.92999 48.26 9.26999C49.21 9.80999 50.16 10.34 51.09 10.92C51.54 11.2 52 11.31 52.52 11.29C53.55 11.26 54.57 11.28 55.65 11.16C55.48 11.06 55.31 10.95 55.14 10.85C50.48 8.10999 45.82 5.37999 41.17 2.61999C40.13 2.00999 39.03 1.70999 37.83 1.70999C36.31 1.71999 34.78 1.70999 33.26 1.70999C32.64 1.70999 32.59 1.77999 32.76 2.38999C33.02 3.30999 33.8 3.88999 34.82 3.89999C35.93 3.90999 37.05 3.85999 38.16 3.91999C38.69 3.94999 39.26 4.06999 39.72 4.31999C41.26 5.14999 42.77 6.05999 44.28 6.94999C44.87 7.28999 45.06 7.77999 44.8 8.24999C44.53 8.73999 44.01 8.81999 43.38 8.45999C41.93 7.61999 40.48 6.75999 39.02 5.94999C38.74 5.82999 38.36 5.73999 38 5.72999C36.93 5.69999 35.85 5.72999 34.78 5.70999C32.77 5.67999 31.21 4.25999 30.96 2.27999C30.81 1.07999 31.54 0.0599889 32.71 0.0399889C34.74 -0.0100111 36.77 0.0199889 38.8 0.0699889C39.97 0.0999889 41.04 0.539989 42.05 1.13999C47.7 4.45999 53.34 7.78999 59 11.1C59.7 11.51 60.03 12.05 60 12.86C59.97 13.99 59.98 15.13 60 16.26C60.01 16.86 59.78 17.31 59.29 17.64C58.76 18 58.24 18.39 57.72 18.76C57.03 19.26 56.64 19.92 56.58 20.77C56.47 22.23 56.44 23.7 56.19 25.14C55.56 28.78 52.74 31.47 49.05 31.72C46.49 31.89 43.87 31.91 41.34 31.56C36.17 30.85 32.2 26.09 32.1 20.85C32.09 20.4 32.09 19.95 32 19.51C31.82 18.58 30.95 17.91 30.02 17.9C29.07 17.89 28.16 18.58 28.01 19.54C27.88 20.36 27.93 21.22 27.81 22.04C26.99 27.56 22.62 31.54 17.03 31.78C14.95 31.87 12.85 31.87 10.77 31.71C7.13 31.42 4.09 28.29 3.75 24.65C3.63 23.35 3.53 22.04 3.43 20.74C3.37 19.93 3 19.29 2.36 18.81C1.91 18.47 1.42 18.17 0.99 17.81C0.63 17.53 0.32 17.18 0 16.85C0 15.29 0 13.73 0 12.17ZM4.33 11.22C4.34 11.25 4.35 11.29 4.36 11.32C5.44 11.32 6.53 11.35 7.61 11.31C8 11.3 8.42 11.19 8.76 11C12.55 8.82999 16.31 6.60999 20.11 4.45999C20.64 4.15999 21.31 4.01999 21.93 3.96999C23 3.88999 24.07 3.95999 25.15 3.94999C26.19 3.93999 26.96 3.32999 27.22 2.37999C27.35 1.92999 27.28 1.73999 26.76 1.74999C25.16 1.76999 23.56 1.74999 21.96 1.75999C20.87 1.76999 19.85 2.04999 18.9 2.60999C14.2 5.37999 9.49 8.14999 4.79 10.92C4.63 11.01 4.48 11.12 4.33 11.22Z" fill="#E3032E"/>
<path d="M15.46 14.25C17.2 14.25 18.94 14.3 20.67 14.24C23.78 14.13 25.65 16.83 25.22 19.27C24.95 20.8 24.97 22.39 24.29 23.83C22.92 26.74 20.66 28.53 17.44 28.79C15.31 28.97 13.14 28.93 11.01 28.78C8.73001 28.62 6.91001 26.69 6.67001 24.4C6.45001 22.27 6.29001 20.12 6.19001 17.98C6.09001 15.93 7.66001 14.32 9.72001 14.25C9.78001 14.25 9.84001 14.25 9.90001 14.25C11.75 14.25 13.6 14.25 15.46 14.25ZM15.45 16.01C13.56 16.01 11.67 16 9.77001 16.02C8.66001 16.03 7.87001 16.84 7.93001 17.94C8.06001 20 8.19001 22.06 8.40001 24.12C8.58001 25.89 9.88001 27.07 11.65 27.12C13.36 27.17 15.09 27.19 16.8 27.11C19.88 26.97 22.33 24.99 23.02 22.09C23.25 21.11 23.33 20.09 23.45 19.08C23.68 17.19 22.63 16.01 20.72 16C18.96 16.01 17.21 16.01 15.45 16.01Z" fill="#E3032E"/>
<path d="M41.95 14.25C43.02 14.25 44.1 14.25 45.17 14.25C45.85 14.25 46.26 14.59 46.26 15.12C46.26 15.65 45.84 16 45.17 16C43.22 16.01 41.27 16 39.31 16C37.35 16.01 36.31 17.17 36.54 19.1C36.66 20.11 36.74 21.13 36.97 22.11C37.66 24.97 40.06 26.94 43.1 27.1C44.85 27.19 46.61 27.17 48.37 27.11C50.12 27.05 51.4 25.87 51.58 24.13C51.8 22.07 51.93 20.01 52.05 17.94C52.11 16.84 51.33 16.05 50.23 16C49.96 15.99 49.68 16.01 49.41 15.98C48.9 15.91 48.58 15.54 48.62 15.06C48.66 14.56 48.96 14.29 49.45 14.25C52.55 13.95 54.04 16.29 53.81 18.39C53.59 20.35 53.55 22.32 53.33 24.28C53.05 26.8 51.27 28.67 48.75 28.81C46.4 28.94 44 28.98 41.69 28.64C38.12 28.12 35.44 25.01 35.05 21.41C34.92 20.23 34.72 19.03 34.82 17.87C34.99 15.86 36.78 14.33 38.8 14.26C39.85 14.23 40.91 14.25 41.96 14.25C41.95 14.26 41.95 14.26 41.95 14.25Z" fill="#E3032E"/>
<path d="M3.72001 14.58C4.04001 14.58 4.30001 14.84 4.30001 15.16C4.30001 15.48 4.04001 15.74 3.72001 15.74C3.40001 15.74 3.14001 15.48 3.14001 15.16C3.14001 14.84 3.40001 14.58 3.72001 14.58ZM3.72001 13.76C2.95001 13.76 2.32001 14.39 2.32001 15.16C2.32001 15.93 2.95001 16.56 3.72001 16.56C4.49001 16.56 5.12001 15.93 5.12001 15.16C5.12001 14.39 4.49001 13.76 3.72001 13.76Z" fill="#E3032E"/>
<path d="M56.28 14.58C56.6 14.58 56.86 14.84 56.86 15.16C56.86 15.48 56.6 15.74 56.28 15.74C55.96 15.74 55.7 15.48 55.7 15.16C55.7 14.84 55.96 14.58 56.28 14.58ZM56.28 13.76C55.51 13.76 54.88 14.39 54.88 15.16C54.88 15.93 55.51 16.56 56.28 16.56C57.05 16.56 57.68 15.93 57.68 15.16C57.69 14.39 57.06 13.76 56.28 13.76Z" fill="#E3032E"/>
</g>
<defs>
<clipPath id="clip0_0_83">
<rect width="60" height="31.86" fill="white"/>
</clipPath>
</defs>
</svg>
