<svg width="49" height="60" viewBox="0 0 49 60" fill="none" xmlns="http://www.w3.org/2000/svg">
<g clip-path="url(#clip0_0_145)">
<path d="M7.1 59.61C6.62 59.3 6.5 58.85 6.53 58.31C6.56 57.83 6.54 57.35 6.54 56.81C5.34 56.81 4.2 56.81 3.06 56.81C1.1 56.81 0 55.7 0 53.74C0 36.86 0 19.98 0 3.1C0 1.09 1.09 0 3.09 0C17.18 0 31.26 0 45.35 0C47.32 0 48.43 1.1 48.43 3.05C48.43 17.47 48.43 31.88 48.43 46.3C48.43 47.56 47.96 48.51 46.82 49.1C46.7 49.16 46.57 49.35 46.57 49.48C46.55 51.32 46.56 53.16 46.56 55C46.72 55.05 46.89 55.06 46.96 55.15C47.16 55.43 47.43 55.73 47.45 56.04C47.48 56.46 47.14 56.73 46.7 56.79C46.51 56.82 46.31 56.8 46.12 56.8C36.5 56.8 26.87 56.8 17.25 56.8C17.08 56.8 16.9 56.81 16.73 56.79C16.23 56.74 15.88 56.38 15.88 55.92C15.88 55.46 16.23 55.1 16.73 55.05C16.92 55.03 17.12 55.04 17.31 55.04C26.22 55.04 35.12 55.04 44.03 55.04C44.26 55.04 44.49 55.04 44.77 55.04C44.77 54.39 44.77 53.76 44.77 53.1C34.5 53.1 24.23 53.1 13.88 53.1C13.88 53.47 13.88 53.83 13.88 54.19C13.88 55.59 13.86 56.98 13.89 58.38C13.9 58.91 13.76 59.33 13.27 59.59C13.08 59.59 12.88 59.59 12.69 59.59C11.95 59.08 11.21 58.56 10.45 58.07C10.32 57.99 10.04 58.03 9.9 58.12C9.15 58.59 8.42 59.09 7.68 59.58C7.48 59.61 7.29 59.61 7.1 59.61ZM5.48 47.61C5.75 47.61 5.96 47.61 6.17 47.61C19.19 47.61 32.21 47.61 45.23 47.61C46.39 47.61 46.68 47.32 46.68 46.17C46.68 31.83 46.68 17.49 46.68 3.16C46.68 2.05 46.38 1.75 45.26 1.75C32.22 1.75 19.18 1.75 6.15 1.75C5.94 1.75 5.74 1.75 5.48 1.75C5.48 2.07 5.48 2.32 5.48 2.57C5.48 15.51 5.48 28.45 5.48 41.39C5.48 41.6 5.49 41.82 5.47 42.03C5.42 42.5 5.12 42.77 4.67 42.8C4.21 42.83 3.89 42.58 3.78 42.13C3.73 41.91 3.74 41.67 3.74 41.44C3.74 28.46 3.74 15.48 3.74 2.5C3.74 2.26 3.74 2.02 3.74 1.78C1.97 1.68 1.76 1.88 1.76 3.56C1.76 18.03 1.76 32.51 1.76 46.98C1.76 47.23 1.76 47.47 1.76 47.7C2.45 47.65 3.08 47.61 3.74 47.57C3.74 46.99 3.74 46.45 3.74 45.91C3.75 45.22 4.06 44.84 4.61 44.83C5.17 44.82 5.48 45.2 5.49 45.89C5.48 46.43 5.48 46.99 5.48 47.61ZM6.5 53.08C5.81 53.08 5.19 53.1 4.57 53.07C4.07 53.05 3.72 52.65 3.73 52.19C3.74 51.73 4.09 51.38 4.59 51.34C4.8 51.32 5.02 51.33 5.23 51.33C18.17 51.33 31.11 51.33 44.05 51.33C44.29 51.33 44.53 51.33 44.77 51.33C44.77 50.62 44.77 50.01 44.77 49.35C44.51 49.35 44.28 49.35 44.05 49.35C30.45 49.35 16.85 49.35 3.25 49.35C3.09 49.35 2.94 49.35 2.78 49.35C2.15 49.38 1.75 49.74 1.74 50.36C1.72 51.58 1.73 52.8 1.74 54.03C1.75 54.56 2.03 55 2.54 55.02C3.85 55.08 5.16 55.04 6.49 55.04C6.5 54.38 6.5 53.76 6.5 53.08ZM12.11 53.13C10.81 53.13 9.57 53.13 8.32 53.13C8.32 54.45 8.32 55.73 8.32 57.09C8.77 56.79 9.17 56.54 9.54 56.27C9.99 55.94 10.42 55.94 10.87 56.27C11.25 56.54 11.65 56.79 12.11 57.09C12.11 55.7 12.11 54.44 12.11 53.13Z" fill="#E3032E"/>
<path d="M14.07 23.29C15.34 23.29 16.55 23.29 17.69 23.29C18.01 21.79 18.31 20.33 18.62 18.88C18.65 18.73 18.7 18.58 18.75 18.44C18.95 17.87 19.37 17.63 19.86 17.79C20.35 17.95 20.55 18.38 20.41 18.96C20.17 19.94 19.94 20.92 19.74 21.9C19.65 22.33 19.62 22.78 19.56 23.28C21.43 23.28 23.28 23.28 25.21 23.28C25.21 22.82 25.21 22.36 25.21 21.9C25.21 20.93 25.21 19.96 25.21 18.99C25.21 18.16 25.52 17.74 26.09 17.75C26.66 17.76 26.95 18.18 26.95 19.02C26.95 20.22 26.95 21.43 26.95 22.63C26.95 22.84 26.95 23.05 26.95 23.3C28.84 23.3 30.67 23.3 32.66 23.3C32.42 22.08 32.2 20.9 31.96 19.72C31.91 19.46 31.8 19.2 31.73 18.94C31.58 18.38 31.81 17.94 32.32 17.8C32.79 17.67 33.25 17.9 33.39 18.44C33.7 19.68 33.96 20.93 34.22 22.18C34.3 22.54 34.31 22.91 34.36 23.31C35.58 23.31 36.79 23.31 38.07 23.31C38.06 23.12 38.06 22.93 38.02 22.76C37.27 19.36 35.45 16.7 32.5 14.81C32.34 14.71 32.09 14.63 32.04 14.48C31.92 14.16 31.75 13.74 31.86 13.49C31.98 13.24 32.43 13.02 32.73 13.02C33.03 13.02 33.21 12.98 33.43 12.78C35.13 11.24 37.1 10.78 39.25 11.61C41.42 12.45 42.64 14.12 42.78 16.44C42.92 18.68 41.93 20.41 39.99 21.57C39.73 21.72 39.61 21.84 39.66 22.19C40.15 25.53 40.61 28.87 41.07 32.21C41.33 34.09 41.57 35.98 41.82 37.86C41.91 38.56 41.65 39.02 41.1 39.09C40.58 39.16 40.21 38.82 40.11 38.13C39.76 35.58 39.42 33.02 39.06 30.36C36.43 35.88 32.19 39.05 26.09 39.06C19.98 39.07 15.73 35.91 13.06 30.36C12.88 31.69 12.72 32.92 12.55 34.15C12.37 35.51 12.19 36.88 11.99 38.24C11.9 38.84 11.51 39.16 11.02 39.09C10.5 39.02 10.2 38.57 10.28 37.97C10.96 32.94 11.61 27.9 12.34 22.87C12.46 22.08 12.33 21.7 11.64 21.23C8.99999 19.44 8.53999 15.71 10.57 13.23C12.6 10.76 16.28 10.52 18.64 12.73C18.95 13.02 19.15 13.05 19.52 12.85C22.38 11.33 25.41 10.88 28.59 11.44C28.72 11.46 28.86 11.49 28.99 11.53C29.52 11.67 29.79 12.07 29.68 12.56C29.58 13.04 29.16 13.27 28.62 13.23C27.29 13.15 25.95 12.96 24.63 13.06C19.53 13.45 14.86 17.84 14.05 22.88C14.08 22.99 14.08 23.11 14.07 23.29ZM13.87 25.11C14 29.41 15.72 32.87 19.27 35.21C23.54 38.03 28.04 38.14 32.43 35.5C36.27 33.19 38.11 29.62 38.29 25.11C30.13 25.11 22.04 25.11 13.87 25.11ZM17.54 14.12C16.6 13.04 15.02 12.67 13.62 13.16C12.16 13.67 11.16 15.02 11.08 16.6C11 18.01 11.85 19.46 13.1 20.03C14.06 17.67 15.55 15.7 17.54 14.12ZM34.62 14.11C36.61 15.69 38.09 17.67 39.05 20.03C40.25 19.53 41.12 18.07 41.08 16.67C41.04 15.11 40.05 13.72 38.6 13.19C37.19 12.66 35.59 13.02 34.62 14.11Z" fill="#E3032E"/>
<path d="M22.83 30.8C20.8 30.79 19.37 30.16 18.24 28.88C17.84 28.43 17.84 27.95 18.21 27.59C18.58 27.24 19.09 27.26 19.49 27.69C20.72 29.01 22.18 29.36 23.88 28.77C24.44 28.58 24.89 28.8 25.06 29.29C25.22 29.76 25.02 30.21 24.48 30.39C23.84 30.59 23.18 30.72 22.83 30.8Z" fill="#E3032E"/>
<path d="M29.78 30.89C29.09 30.73 28.38 30.6 27.7 30.39C27.13 30.21 26.92 29.75 27.1 29.26C27.28 28.79 27.71 28.58 28.24 28.76C29.96 29.36 31.43 29.02 32.68 27.67C33.06 27.26 33.56 27.24 33.92 27.57C34.31 27.91 34.33 28.42 33.94 28.86C32.85 30.11 31.46 30.75 29.78 30.89Z" fill="#E3032E"/>
</g>
<defs>
<clipPath id="clip0_0_145">
<rect width="48.42" height="60" fill="white"/>
</clipPath>
</defs>
</svg>
