<svg width="53" height="60" viewBox="0 0 53 60" fill="none" xmlns="http://www.w3.org/2000/svg">
<g clip-path="url(#clip0_0_99)">
<path d="M31.28 52C31.06 52 30.83 52 30.6 52C23.12 52 15.65 52 8.16999 52C4.70999 52 4.98999 52.3 4.99999 48.86C4.99999 48.59 4.99999 48.33 4.99999 48C4.67999 48 4.40999 48.01 4.14999 48C3.36999 47.98 2.99999 47.62 2.99999 46.84C2.98999 44.99 2.99999 43.13 2.99999 41.28C2.99999 41.16 2.98999 41.04 2.97999 40.91C1.11999 40.23 -0.0100078 38.97 0.0199922 36.95C0.0499922 34.99 1.15999 33.76 2.97999 33.11C2.97999 32.71 2.97999 32.32 2.97999 31.94C2.55999 31.73 2.12999 31.56 1.75999 31.31C0.479992 30.41 -0.130008 29.15 0.0299922 27.6C0.189992 26.08 1.00999 24.95 2.43999 24.36C2.92999 24.16 3.07999 23.92 3.00999 23.45C3.00999 23.43 3.00999 23.41 3.00999 23.39C3.10999 22.48 2.98999 21.86 1.95999 21.38C0.529992 20.72 -0.0800078 19.33 0.0299922 17.74C0.139992 16.18 0.949992 15.05 2.35999 14.37C2.55999 14.27 2.77999 14.19 3.00999 14.1C3.00999 13.48 3.02999 12.88 2.98999 12.28C2.97999 12.11 2.81999 11.86 2.66999 11.79C0.949992 11.08 -0.0100078 9.8 0.0199922 7.94C0.0499922 6.08 1.05999 4.84 2.79999 4.19C2.85999 4.16 2.90999 4.12 2.99999 4.07C2.99999 3.13 2.98999 2.18 2.99999 1.22C2.99999 0.36 3.35999 0 4.20999 0C13.73 0 23.25 0 32.77 0.02C33.09 0.02 33.47 0.18 33.7 0.39C34.49 1.09 35.25 1.84 35.99 2.6C36.27 2.89 36.56 3.02 36.97 3.01C39.2 2.99 41.43 3 43.66 3C44.68 3 45 3.32 45 4.35C45 12.2 45 20.06 45 27.91C45 28.13 45 28.36 45 28.58C45.04 28.59 45.07 28.61 45.11 28.62C45.63 27.73 46.15 26.85 46.67 25.96C46.91 25.55 47.15 25.13 47.4 24.72C48.32 23.25 50.09 22.78 51.52 23.63C52.95 24.47 53.42 26.26 52.56 27.77C51.53 29.58 50.46 31.36 49.41 33.16C48.04 35.49 46.67 37.82 45.32 40.17C45.14 40.49 45.02 40.9 45.02 41.27C45 44.39 45.01 47.52 45.01 50.64C45.01 51.67 44.69 51.99 43.68 52C42.08 52 40.47 52.01 38.87 51.99C38.52 51.99 38.31 52.09 38.13 52.41C37.44 53.65 36.73 54.87 36.02 56.09C35.92 56.26 35.76 56.42 35.6 56.54C34.27 57.58 32.93 58.61 31.61 59.65C31.2 59.97 30.78 60.15 30.3 59.85C29.83 59.56 29.78 59.12 29.86 58.59C30.11 57.05 30.28 55.5 30.57 53.96C30.66 53.31 31.01 52.7 31.28 52ZM4.99999 45.96C5.14999 45.98 5.20999 46 5.26999 46C15.02 46 24.76 46.01 34.51 45.99C34.73 45.99 35.04 45.78 35.16 45.58C36.37 43.56 37.56 41.54 38.73 39.5C38.89 39.21 38.99 38.84 38.99 38.51C39 28.91 39 19.31 39 9.71C39 9.49 39 9.27 39 9.02C37.11 9.02 35.3 9.02 33.49 9.02C32.27 9.02 32 8.75 32 7.51C32 5.89 32 4.26 32 2.64C32 2.44 32 2.25 32 2.06C22.95 2.06 14.01 2.06 5.04999 2.06C5.04999 4.61 5.04999 7.13 5.04999 9.65C5.09999 9.65 5.15999 9.67 5.20999 9.7C5.44999 9.3 5.71999 8.93 5.91999 8.51C6.19999 7.92 6.66999 7.63 7.18999 7.8C7.74999 7.98 8.00999 8.52 7.80999 9.17C7.42999 10.37 6.65999 11.25 5.47999 11.7C5.04999 11.86 4.97999 12.07 4.97999 12.47C5.00999 14.67 4.99999 16.87 4.99999 19.08C4.99999 19.26 5.01999 19.44 5.02999 19.61C5.08999 19.64 5.14999 19.67 5.20999 19.69C5.44999 19.3 5.72999 18.94 5.91999 18.53C6.21999 17.9 6.69999 17.61 7.23999 17.8C7.78999 18 8.01999 18.53 7.81999 19.19C7.43999 20.37 6.67999 21.22 5.52999 21.67C5.11999 21.84 4.97999 22 4.98999 22.43C5.00999 24.68 4.99999 26.93 4.99999 29.18C4.99999 29.33 5.02999 29.48 5.04999 29.63C5.10999 29.65 5.17999 29.68 5.23999 29.7C5.48999 29.26 5.74999 28.84 5.97999 28.39C6.23999 27.88 6.71999 27.64 7.19999 27.8C7.69999 27.96 7.97999 28.44 7.85999 28.99C7.79999 29.27 7.67999 29.54 7.54999 29.8C7.01999 30.87 6.12999 31.52 5.02999 31.87C5.02999 34.14 5.02999 36.37 5.02999 38.61C5.08999 38.64 5.13999 38.67 5.19999 38.69C5.43999 38.3 5.71999 37.93 5.90999 37.52C6.20999 36.89 6.68999 36.6 7.22999 36.8C7.77999 37 8.00999 37.54 7.79999 38.19C7.39999 39.42 6.58999 40.24 5.39999 40.74C5.22999 40.81 5.01999 41.02 5.00999 41.18C4.98999 42.77 4.99999 44.35 4.99999 45.96ZM40.99 35.37C41.03 35.38 41.07 35.4 41.12 35.41C41.65 34.5 42.21 33.6 42.71 32.68C42.87 32.39 42.98 32.02 42.98 31.69C42.99 23.05 42.99 14.41 42.99 5.77C42.99 5.53 42.99 5.28 42.99 5.05C41.46 5.05 40.01 5.05 38.4 5.05C39.13 5.76 39.74 6.38 40.39 6.97C40.85 7.38 41 7.85 41 8.46C40.99 17.2 40.99 25.95 40.99 34.69C40.99 34.92 40.99 35.14 40.99 35.37ZM33.72 48.04C24.75 48.04 15.9 48.04 7.04999 48.04C7.04999 48.72 7.04999 49.35 7.04999 50C10.41 50 13.72 50 17.03 50C22.03 50 27.02 50 32.02 49.99C32.24 49.99 32.57 49.95 32.67 49.8C33.05 49.26 33.35 48.67 33.72 48.04ZM34.68 54.32C39.08 46.82 43.43 39.38 47.82 31.89C47.21 31.54 46.67 31.22 46.09 30.88C41.69 38.39 37.33 45.83 32.95 53.3C33.54 53.65 34.07 53.97 34.68 54.32ZM42.98 44.37C42.94 44.35 42.9 44.34 42.86 44.32C41.77 46.18 40.68 48.04 39.56 49.95C40.76 49.95 41.86 49.95 42.98 49.95C42.98 48.06 42.98 46.21 42.98 44.37ZM37.34 6.99C36.23 5.88 35.11 4.76 34.04 3.7C34.04 4.72 34.04 5.85 34.04 6.99C35.19 6.99 36.29 6.99 37.34 6.99ZM50.35 27.58C50.66 26.96 51.28 26.48 50.86 25.79C50.7 25.52 50.29 25.28 49.98 25.26C49.14 25.22 49.02 26.02 48.64 26.57C49.21 26.91 49.74 27.22 50.35 27.58ZM2.94999 9.62C2.94999 8.51 2.94999 7.44 2.94999 6.36C1.62999 7.05 1.77999 9.1 2.94999 9.62ZM2.94999 19.62C2.94999 18.51 2.94999 17.45 2.94999 16.35C1.67999 17.22 1.68999 18.88 2.94999 19.62ZM2.94999 29.62C2.94999 28.51 2.94999 27.45 2.94999 26.36C1.61999 27.05 1.77999 29.11 2.94999 29.62ZM2.97999 35.41C2.36999 35.65 1.98999 36.27 1.99999 37.02C2.00999 37.75 2.36999 38.35 2.97999 38.58C2.97999 37.52 2.97999 36.47 2.97999 35.41ZM47.11 29.17C47.71 29.52 48.25 29.83 48.82 30.17C48.99 29.88 49.14 29.62 49.32 29.32C48.73 28.97 48.19 28.65 47.61 28.31C47.43 28.62 47.29 28.86 47.11 29.17ZM32.15 56.66C32.57 56.33 32.88 56.09 33.24 55.81C32.93 55.63 32.68 55.48 32.36 55.29C32.29 55.75 32.23 56.13 32.15 56.66Z" fill="#E3032E"/>
<path d="M22.95 13C19.45 13 15.95 13 12.45 13C12.26 13 12.07 13.02 11.89 12.99C11.35 12.9 11.04 12.57 11.01 12.02C10.98 11.5 11.38 11.08 11.92 11.02C12.06 11 12.21 11.01 12.36 11.01C19.44 11.01 26.52 11.01 33.61 11.01C33.76 11.01 33.9 11 34.05 11.02C34.61 11.08 34.99 11.48 35 12C35.01 12.52 34.63 12.94 34.08 13C33.88 13.01 33.69 13 33.51 13C29.99 13 26.47 13 22.95 13Z" fill="#E3032E"/>
<path d="M23.06 17C26.56 17 30.06 17 33.56 17C33.75 17 33.94 16.98 34.12 17.02C34.66 17.12 34.98 17.45 34.98 18C34.98 18.55 34.65 18.88 34.12 18.98C33.93 19.02 33.74 19 33.55 19C26.51 19 19.47 19 12.43 19C12.24 19 12.05 19.02 11.87 18.98C11.33 18.88 11.01 18.55 11.01 17.99C11.01 17.44 11.34 17.11 11.87 17.01C12.05 16.98 12.24 16.99 12.43 16.99C15.98 17 19.52 17 23.06 17Z" fill="#E3032E"/>
<path d="M22.99 23C26.51 23 30.03 23 33.55 23C33.74 23 33.93 22.98 34.11 23.02C34.65 23.12 34.97 23.45 34.97 24C34.97 24.55 34.64 24.88 34.11 24.98C33.93 25.02 33.74 25 33.55 25C26.51 25 19.47 25 12.43 25C12.24 25 12.05 25.02 11.87 24.98C11.33 24.88 11.01 24.55 11.01 24C11.01 23.45 11.34 23.12 11.87 23.02C12.05 22.99 12.24 23 12.43 23C15.95 23 19.47 23 22.99 23Z" fill="#E3032E"/>
<path d="M23 29C26.5 29 30 29 33.5 29C33.69 29 33.88 28.99 34.06 29.01C34.61 29.07 34.99 29.49 34.99 30.01C34.99 30.53 34.6 30.94 34.05 31C33.89 31.02 33.72 31.01 33.55 31.01C26.51 31.01 19.47 31.01 12.43 31.01C12.22 31.01 12.01 31.03 11.81 30.98C11.31 30.86 11.01 30.53 11.01 30C11.01 29.48 11.32 29.15 11.82 29.03C12.02 28.98 12.23 29.01 12.44 29.01C15.96 29 19.48 29 23 29Z" fill="#E3032E"/>
<path d="M16 35C17.27 35 18.54 34.99 19.81 35C20.54 35 20.99 35.39 20.99 36C20.99 36.6 20.54 37 19.81 37C17.26 37 14.72 37 12.18 37C11.45 37 11 36.61 11 36C11 35.39 11.44 35.01 12.18 35C13.45 34.99 14.72 35 16 35Z" fill="#E3032E"/>
</g>
<defs>
<clipPath id="clip0_0_99">
<rect width="52.98" height="60" fill="white"/>
</clipPath>
</defs>
</svg>
