<svg width="61" height="60" viewBox="0 0 61 60" fill="none" xmlns="http://www.w3.org/2000/svg">
<g clip-path="url(#clip0_0_114)">
<path d="M60.27 19.11C59.33 16.8 57.67 15.1 55.19 13.92C53.35 13.04 51.29 12.52 48.7 12.3C45.94 12.05 43.07 12.18 39.93 12.68L39.89 12.69C39.45 12.76 38.96 12.84 38.86 13.5C38.62 15.1 37.92 16.52 37.34 17.58C35.85 20.3 33.82 22.98 30.96 26C29.75 27.27 28.91 28.45 28.32 29.71C28.14 30.1 27.9 30.47 27.67 30.82L27.58 30.96C27.28 31.42 26.91 31.56 26.39 31.42C25.94 31.3 25.46 31.26 24.95 31.24C23.36 31.15 23.36 31.15 23.13 29.53C23.12 29.43 23.11 29.34 23.1 29.24L23.09 29.17C22.96 27.44 23.4 25.82 24.39 24.36C24.8 23.75 24.75 23.47 24.16 23.04C24.1 23 24.04 22.95 23.98 22.91C23.92 22.87 23.87 22.83 23.81 22.79C19.62 19.77 17.65 15.64 17.95 10.52V10.49C18.03 9.15001 17.99 9.10001 16.65 8.88001L16.59 8.87001C14.62 8.51001 12.55 8.00001 10.73 6.76001C8.69 5.36001 8.03 3.46001 8.76 1.10001C8.82 0.850012 8.84 0.410012 8.66 0.200012C8.48 1.22339e-05 8.04 -0.0299878 7.79 0.0200122C2.27 1.31001 -0.910004 6.28001 0.229996 11.84C0.339996 12.36 0.569996 12.67 1.02 12.87C2.6 13.6 4.13 14.59 5.56 15.83C9.04 18.84 11.74 22.73 13.8 27.74C13.92 28.03 14.03 28.33 14.15 28.64C14.19 28.75 14.23 28.86 14.28 28.98L12.08 28.71C12.22 28.03 12.24 27.64 12.03 27.42C11.79 27.16 11.29 27.19 10.3 27.35C10.3 27.3 10.3 27.24 10.3 27.19C10.3 27 10.3 26.81 10.29 26.63C10.28 26.42 10.25 26.2 10.23 26L10.21 25.83C10.13 25.19 9.98 24.86 9.71 24.74C9.44 24.63 9.1 24.74 8.58 25.13C7.14 26.2 6.41 27.74 5.94 28.97C4.96 31.53 4.95 34.24 4.93 36.87V37.06C4.93 37.66 5.31 38.11 5.97 38.29C6.19 38.35 6.41 38.39 6.63 38.42C6.83 38.45 7.04 38.49 7.24 38.54C7.94 38.72 8.41 38.52 8.72 37.89C9.03 37.26 9.47 36.8 10.08 36.46C10.9 36.01 11.53 35.3 12.01 34.28C12.08 34.13 12.33 33.97 12.48 33.97H12.49C13.74 33.97 15.01 34.23 16.27 34.73C16.66 34.89 16.83 35.09 16.92 35.52C17.36 37.59 18.14 40.2 20.34 42.1C20.39 42.15 20.41 42.4 20.35 42.57C20 43.63 19.62 44.75 19.18 45.99C18.88 46.82 19.01 47.55 19.56 48.22L19.65 48.33C19.83 48.54 20.01 48.76 20.16 48.99C20.61 49.64 21.2 49.99 21.96 50.07C22.09 50.08 22.22 50.15 22.38 50.24C22.42 50.26 22.47 50.29 22.52 50.31C21.71 50.92 21.37 51.71 21.4 52.84C21.41 53.04 21.41 53.22 21.41 53.37C21.42 54.45 21.46 54.5 22.81 54.85L23.05 54.91C23.77 55.1 24.01 54.95 24.23 54.2C24.27 54.07 24.31 53.95 24.37 53.83C24.37 53.92 24.37 54.01 24.36 54.1C24.34 54.5 24.33 54.87 24.5 55.15C24.72 55.52 25.2 55.72 25.66 55.92C25.78 55.97 25.9 56.02 26.02 56.08C26.27 56.2 26.49 56.21 26.68 56.13C26.87 56.05 27.03 55.87 27.14 55.6C28.73 57.56 30.73 58.85 33.27 59.53C34.68 59.91 36.1 60.01 37.37 60.01C37.94 60.01 38.48 59.99 38.97 59.96C40.93 59.86 42.6 59.29 44.06 58.23C44.26 58.08 44.47 57.94 44.67 57.79C45.21 57.41 45.76 57.01 46.29 56.6C48.17 55.17 49.13 53.45 49.23 51.35C49.24 51.14 49.25 50.92 49.27 50.71C49.3 50.11 49.34 49.5 49.33 48.89C49.33 48.62 49.16 48.18 48.9 48.06C48.64 47.94 48.21 48.12 48 48.3C47.63 48.6 47.28 48.93 46.94 49.25C46.7 49.47 46.46 49.69 46.22 49.91C44.85 51.1 44.09 52.57 43.96 54.28C43.92 54.81 43.7 55.15 43.2 55.46C41.21 56.69 39.03 56.93 36.75 56.17C34.98 55.58 33.66 53.65 33.61 51.58C33.6 51.26 33.6 50.94 33.6 50.62C33.59 49.93 33.59 49.21 33.54 48.5C33.36 45.93 33.15 43.01 31.63 40.4C32.6 39.31 33.86 38.53 35.37 38.08C37.27 37.51 39.32 37.42 41.46 37.79C42.55 37.98 42.71 37.88 42.96 36.81L43.01 36.59C43.19 35.84 43.37 35.07 43.63 34.34C45.13 30.15 47.77 27.66 51.71 26.75L51.77 26.74C53.21 26.41 53.24 26.37 53.46 24.86C53.8 22.56 55.09 21.04 57.1 20.57C57.8 20.4 58.56 20.4 59.3 20.39H59.39C59.9 20.39 60.2 20.28 60.34 20.07C60.46 19.85 60.45 19.55 60.27 19.11ZM10.46 8.30001C11.88 9.15001 13.52 9.73001 15.79 10.17L16.48 10.31C16.15 15.92 18.3 20.5 22.88 23.92C21.41 27.47 21.33 28.08 22.01 31.25C21.94 31.26 21.86 31.28 21.79 31.29C21.33 31.38 20.9 31.47 20.45 31.2C20.03 30.95 19.57 30.7 19.09 30.57C18.31 30.37 18.01 29.88 17.79 29.15C17.46 28.08 17.07 27.02 16.68 25.99C16.53 25.6 16.39 25.21 16.25 24.82C16.16 24.57 16.03 24.28 15.77 24.17C15.7 24.14 15.62 24.12 15.54 24.12C15.44 24.12 15.33 24.14 15.21 24.19C14.57 24.46 14.78 25.03 14.91 25.37C15.3 26.42 15.68 27.47 16.06 28.53L16.38 29.4C16.4 29.46 16.42 29.51 16.44 29.58C16.09 29.58 15.94 29.38 15.81 29C13.81 23.36 10.99 18.89 7.18 15.35C5.6 13.88 4.02 12.77 2.36 11.95C1.8 11.67 1.57 11.35 1.52 10.76C1.28 7.82001 2.02 5.54001 3.78 3.80001C4.65 2.93001 5.74 2.27001 7.09 1.79001C6.75 4.59001 7.86 6.73001 10.46 8.30001ZM30.12 39.95C29.97 40.16 29.92 40.65 30.08 40.84C31.2 42.15 31.52 43.78 31.69 45.21C31.96 47.49 32.07 49.8 32.13 51.56C32.24 54.58 34.32 57.19 37.08 57.78C39.05 58.2 40.95 58.05 42.72 57.33C41.3 58.24 39.62 58.59 37.51 58.46C34.6 58.27 32.38 56.72 30.72 53.72C30.09 52.57 29.62 51.31 29.17 50.08C29.04 49.72 28.9 49.35 28.76 48.99C28.68 48.78 28.7 48.51 28.72 48.24C28.73 48.14 28.74 48.04 28.74 47.94C28.74 47.84 28.76 47.74 28.79 47.64C28.81 47.56 28.82 47.49 28.83 47.41C28.9 46.85 28.71 46.53 28.24 46.46C28.2 46.45 28.15 46.45 28.1 46.45C27.8 46.45 27.49 46.6 27.4 47.2C27.2 48.51 26.99 49.83 26.79 51.14C26.77 51.29 26.74 51.44 26.71 51.57L26.69 51.66C26.47 51.68 26.24 51.68 26.02 51.68C25.44 51.69 24.89 51.7 24.4 51.9C23.94 52.08 23.56 52.46 23.2 52.83C23.08 52.95 22.96 53.07 22.85 53.18C22.69 52.75 22.7 52.34 22.89 52.02C23.1 51.65 23.52 51.41 24.08 51.34C24.15 51.33 24.22 51.32 24.3 51.3C24.41 51.28 24.51 51.26 24.62 51.26C25.08 51.25 25.38 51.15 25.54 50.93C25.72 50.69 25.74 50.31 25.59 49.75C25.39 49 24.91 48.42 24.17 48.03C23.76 47.81 23.36 47.23 23.16 46.53C22.98 45.88 23 45.28 23.22 44.91C23.39 44.63 23.76 44.35 24.14 44.22C24.53 44.09 24.95 44.01 25.36 43.94C25.61 43.9 25.86 43.85 26.11 43.8C26.61 43.68 27.02 43.81 27.42 44.18C27.59 44.34 27.76 44.5 27.93 44.66C28.15 44.87 28.37 45.07 28.58 45.28C28.79 45.48 28.99 45.58 29.19 45.58C29.2 45.58 29.2 45.58 29.21 45.58C29.38 45.57 29.55 45.49 29.69 45.33C29.99 45 29.95 44.6 29.59 44.26C29.47 44.15 29.35 44.03 29.24 43.92C28.89 43.58 28.53 43.24 28.15 42.92C27.54 42.41 26.81 42.22 26 42.36C25.47 42.45 24.94 42.53 24.41 42.61L23.77 42.71C23.4 42.43 23.01 42.18 22.63 41.94C21.78 41.39 20.9 40.82 20.27 39.97C19.48 38.9 18.96 37.69 18.67 36.28C18.78 36.37 18.89 36.47 18.99 36.56C19.48 37 19.84 36.83 20.06 36.6C20.21 36.44 20.29 36.27 20.28 36.1C20.28 35.9 20.17 35.69 19.95 35.49C18.16 33.78 16.02 32.81 13.58 32.61C12.74 32.54 11.88 32.59 11.05 32.65C10.77 32.67 10.48 32.69 10.2 32.7C9.95 32.71 9.59 32.75 9.39 32.99C9.27 33.13 9.23 33.32 9.25 33.55C9.28 33.77 9.36 33.93 9.49 34.03C9.71 34.2 10.03 34.18 10.31 34.14C10.33 34.14 10.36 34.13 10.46 34.2C10.35 34.3 10.24 34.41 10.14 34.52C9.84 34.82 9.54 35.12 9.19 35.32C8.46 35.74 7.97 36.22 7.66 36.84C7.48 37.21 7.27 37.16 6.92 37.03C6.79 36.98 6.66 36.94 6.54 36.93C6.48 36.89 6.35 36.6 6.35 36.43L6.36 36.03C6.39 33.91 6.41 31.72 7.22 29.68C7.46 29.06 7.8 28.47 8.13 27.89C8.28 27.63 8.43 27.36 8.57 27.09C8.62 26.99 8.68 26.9 8.75 26.83C8.85 27.53 8.9 28.1 8.35 28.65C7.38 29.64 7.18 30.99 7.12 32.05C7.1 32.31 7.17 32.52 7.3 32.67C7.42 32.8 7.59 32.87 7.8 32.88C7.81 32.88 7.83 32.88 7.84 32.88C8.35 32.88 8.49 32.45 8.56 32.13L8.62 31.86C8.74 31.26 8.87 30.65 9.09 30.09C9.33 29.5 9.78 29.09 10.47 28.85C10.4 29.03 10.33 29.21 10.27 29.38C10.08 29.89 9.9 30.37 9.7 30.84C9.57 31.14 9.34 31.69 9.92 31.99C10.13 32.09 10.32 32.11 10.49 32.05C10.7 31.97 10.87 31.77 11.01 31.44C11.03 31.38 11.06 31.33 11.09 31.27L11.14 31.16C11.65 30.04 11.65 30.04 12.88 30.25C15.38 30.66 17.77 31.45 19.98 32.59C20.44 32.83 20.84 32.9 21.32 32.83C23.18 32.55 24.82 32.56 26.35 32.88C27.19 33.05 27.89 32.81 28.38 32.18C28.9 31.51 29.3 30.9 29.59 30.32C30.16 29.18 30.91 28.12 31.91 27.06C34.21 24.62 36.82 21.65 38.66 18.09C39.04 17.35 39.34 16.55 39.62 15.78C39.78 15.34 39.95 14.89 40.13 14.46C40.2 14.28 40.38 14.1 40.49 14.08C44.05 13.56 48.73 13.17 53.37 14.73C55.56 15.47 57.16 16.66 58.24 18.35C58.33 18.49 58.41 18.64 58.48 18.78C58.49 18.79 58.49 18.8 58.5 18.81C58.25 18.86 58 18.91 57.76 18.96C57.14 19.08 56.55 19.19 55.99 19.4C53.73 20.23 52.42 21.98 51.99 24.75C51.94 25.07 51.92 25.23 51.58 25.3C47.11 26.24 44.06 29 42.28 33.74C42.13 34.15 42 34.57 41.89 34.98L41.87 35.03C41.78 35.33 41.71 35.62 41.63 35.93L41.54 36.27C41.27 36.26 41.01 36.24 40.75 36.22C40.15 36.18 39.52 36.14 38.9 36.14C38.89 36.14 38.88 36.14 38.87 36.14C35.79 36.14 33.32 36.96 31.34 38.65C30.9 39.03 30.49 39.47 30.12 39.95ZM28.14 52.09C28.15 52.02 28.16 51.95 28.17 51.88C29.18 54.23 30.27 55.95 31.64 57.36C29.76 56.49 28.33 55.13 27.29 53.22C27.97 53.12 28.06 52.6 28.14 52.09ZM24.11 49.8L24.04 49.89C23.86 49.87 23.77 49.72 23.64 49.5C23.61 49.45 23.59 49.41 23.56 49.36C23.75 49.51 23.93 49.66 24.11 49.8ZM20.53 46.53C20.8 45.66 21.1 44.82 21.42 43.92C21.52 43.64 21.62 43.35 21.72 43.06L22.39 43.5C21.31 45.21 21.38 46.88 22.6 48.71C21.71 48.79 21.25 48.13 20.78 47.44L20.63 47.23C20.51 47.07 20.46 46.74 20.53 46.53ZM45.09 55.64C45.27 55.31 45.31 54.93 45.34 54.56L45.36 54.37C45.55 52.72 46.25 51.57 47.76 50.44C48.08 52.32 46.97 54.44 45.09 55.64Z" fill="#E4032E"/>
<path d="M56.73 29C56.53 28.83 56.26 28.84 56.08 28.86C53.8 29.09 51.77 29.99 49.85 31.6C49.49 31.91 49.44 32.26 49.71 32.6C49.85 32.78 50.02 32.88 50.2 32.9C50.22 32.9 50.24 32.9 50.26 32.9C50.43 32.9 50.6 32.83 50.77 32.69C52.46 31.28 54.28 30.48 56.34 30.24C56.54 30.22 56.71 30.05 56.85 29.92C56.9 29.87 56.94 29.83 56.98 29.8L57.03 29.76L57.02 29.7C57 29.37 56.9 29.14 56.73 29Z" fill="#E4032E"/>
<path d="M27.22 23.1C27.34 23.18 27.48 23.22 27.61 23.22C27.73 23.22 27.84 23.19 27.95 23.13C28.2 22.98 28.34 22.69 28.32 22.36V22.32L28.3 22.29C28.28 22.27 28.26 22.24 28.23 22.2C28.15 22.1 28.05 21.96 27.92 21.86C27.76 21.74 27.6 21.62 27.44 21.51C27.19 21.34 26.96 21.18 26.76 20.99C25.89 20.15 25.06 19.27 24.2 18.37C23.99 18.15 23.78 18.04 23.58 18.04C23.42 18.04 23.28 18.11 23.16 18.24C22.98 18.44 22.88 18.94 23.04 19.16C24.13 20.71 25.54 22.03 27.22 23.1Z" fill="#E4032E"/>
<path d="M46.73 37.04C46.72 37.04 46.71 37.04 46.71 37.04C46.46 37.04 46.06 37.26 45.98 37.5C45.64 38.58 45.37 39.68 45.13 40.64C45.07 40.88 45.1 41.09 45.21 41.26C45.31 41.41 45.48 41.51 45.71 41.55C45.76 41.56 45.81 41.56 45.86 41.56C46.21 41.56 46.45 41.34 46.56 40.89C46.73 40.2 46.91 39.5 47.09 38.81L47.24 38.22C47.27 38.12 47.29 38.02 47.33 37.89L47.42 37.56L47.37 37.52C47.32 37.48 47.28 37.43 47.23 37.38C47.07 37.21 46.91 37.05 46.73 37.04Z" fill="#E4032E"/>
<path d="M20.97 12.95C20.75 13.03 20.48 13.45 20.54 13.67C20.84 14.7 21.19 15.74 21.58 16.74C21.65 16.92 22 17.04 22.25 17.04C22.29 17.04 22.33 17.04 22.37 17.03C22.55 16.99 22.68 16.82 22.78 16.68C22.81 16.63 22.85 16.59 22.87 16.56L22.91 16.51L22.89 16.45C22.8 16.17 22.7 15.89 22.61 15.62C22.33 14.78 22.07 13.98 21.77 13.2C21.7 13 21.19 12.86 20.97 12.95Z" fill="#E4032E"/>
<path d="M20.32 10.37C20.43 10.5 20.59 10.58 20.8 10.59C20.83 10.59 20.86 10.59 20.88 10.59C21.31 10.59 21.55 10.31 21.6 9.73998C21.61 9.60998 21.63 9.46999 21.65 9.33999C21.69 9.06999 21.73 8.77999 21.69 8.50999C21.65 8.23999 21.35 7.84998 21.09 7.80998C20.84 7.75998 20.45 8.06998 20.33 8.31998C20.22 8.56998 20.2 8.83998 20.18 9.07998C20.17 9.16998 20.17 9.24998 20.16 9.31998V9.32998V9.49998C20.16 9.56998 20.16 9.61998 20.16 9.66998C20.13 9.97998 20.19 10.22 20.32 10.37Z" fill="#E4032E"/>
<path d="M48.6 33.21C48.54 33.21 48.5 33.22 48.48 33.25C48.06 33.74 47.74 34.2 47.5 34.66C47.43 34.79 47.56 34.93 47.79 35.16C47.84 35.21 47.88 35.26 47.91 35.29L47.94 35.33H47.99H48C48.44 35.33 48.93 34.88 49.18 34.43C49.37 34.1 49.42 33.8 49.31 33.62C49.18 33.41 48.74 33.22 48.6 33.21Z" fill="#E4032E"/>
<path d="M42 16.51C42.12 16.15 42.23 15.78 42.36 15.4L42.38 15.33L42.33 15.28C42.25 15.21 42.17 15.13 42.1 15.06C41.94 14.89 41.79 14.74 41.6 14.69C41.41 14.65 41.25 14.67 41.11 14.76C40.94 14.87 40.83 15.08 40.78 15.37C40.41 17.56 39.37 19.41 38.3 21.09C36.34 24.16 33.88 26.86 31.97 28.87C31.74 29.11 31.3 29.57 31.81 30.07C31.97 30.23 32.13 30.31 32.3 30.31H32.31C32.58 30.3 32.81 30.09 33 29.88C33.35 29.5 33.7 29.11 34.05 28.73C34.82 27.89 35.62 27.02 36.36 26.13C37.94 24.25 39.92 21.72 41.21 18.74C41.52 18.03 41.75 17.29 42 16.51Z" fill="#E4032E"/>
<path d="M42.75 18.6C42.88 18.7 43.05 18.72 43.22 18.74C43.29 18.75 43.37 18.76 43.44 18.77C46.59 19.51 48.72 21.39 49.77 24.34C49.85 24.58 50.02 25.04 50.47 25.04C50.55 25.04 50.63 25.03 50.72 25C50.93 24.94 51.07 24.83 51.15 24.67C51.25 24.48 51.24 24.24 51.14 23.91C50.75 22.68 50.1 21.55 49.23 20.54C47.67 18.74 45.59 17.65 42.86 17.19L42.8 17.18L42.76 17.22C42.73 17.25 42.68 17.29 42.64 17.33C42.49 17.46 42.3 17.62 42.29 17.82C42.27 18.09 42.52 18.41 42.75 18.6Z" fill="#E4032E"/>
<path d="M41.96 29.08C41.96 27.35 41.62 25.45 41.11 24.33C41.02 24.14 40.75 23.55 40.13 23.81C39.5 24.06 39.7 24.67 39.77 24.87C39.81 24.98 39.85 25.1 39.89 25.21C40.01 25.55 40.13 25.9 40.21 26.25C40.73 28.61 40.59 31.11 39.77 34.13C39.69 34.42 39.62 34.74 39.77 34.99C39.86 35.14 40.02 35.24 40.24 35.29C40.31 35.31 40.38 35.32 40.45 35.32C40.58 35.32 40.69 35.29 40.78 35.23C41.02 35.07 41.11 34.74 41.16 34.5C41.41 33.19 41.65 31.88 41.89 30.57L42.16 29.11L42.06 29.09C42.02 29.09 41.99 29.08 41.96 29.08Z" fill="#E4032E"/>
<path d="M7.31 33.84C7.3 33.84 7.29 33.84 7.28 33.84C7.03 33.85 6.81 33.95 6.68 34.11C6.56 34.25 6.52 34.43 6.56 34.63C6.6 34.85 6.75 35.03 6.9 35.21C6.96 35.28 7.02 35.36 7.07 35.43L7.1 35.48H7.15C7.24 35.48 7.34 35.48 7.43 35.48H7.49L7.52 35.43C7.57 35.36 7.64 35.28 7.7 35.21C7.86 35.03 8.02 34.85 8.05 34.63C8.08 34.42 8.03 34.22 7.9 34.07C7.77 33.93 7.56 33.84 7.31 33.84Z" fill="#E4032E"/>
<path d="M6.63999 11.39C6.69999 11.61 6.80999 11.76 6.95999 11.85C7.13999 11.95 7.36999 11.95 7.63999 11.87C8.73999 11.53 9.83999 11.5 10.91 11.76C11.94 12.02 12.96 12.38 13.94 12.74L14.32 12.88C14.48 12.94 14.64 12.98 14.8 12.98C15.03 12.98 15.24 12.88 15.39 12.58C15.48 12.39 15.5 12.21 15.44 12.05C15.37 11.86 15.2 11.69 14.93 11.56C13.02 10.66 11.23 10.18 9.45999 10.09H9.44999H9.43999C9.21999 10.13 8.99999 10.17 8.77999 10.21C8.26999 10.3 7.73999 10.39 7.21999 10.5C6.97999 10.55 6.78999 10.67 6.68999 10.84C6.59999 10.99 6.57999 11.18 6.63999 11.39Z" fill="#E4032E"/>
<path d="M5.6 5.28001C5.39 5.29001 5.18 5.41001 4.95 5.66001C4.03 6.69001 3.54 7.90001 3.48 9.38001V9.39001V9.40001C3.52 9.60001 3.56 9.81001 3.6 10.01C3.69 10.48 3.78 10.96 3.9 11.43C3.96 11.65 4.1 11.83 4.28 11.9C4.35 11.93 4.42 11.94 4.5 11.94C4.61 11.94 4.72 11.91 4.82 11.85C5.02 11.73 5.12 11.45 5.2 11.21C5.21 11.17 5.23 11.12 5.24 11.08C5.28 10.98 5.23 10.88 5.19 10.79C5.17 10.75 5.16 10.71 5.15 10.68C4.77 9.00001 5.07 7.67001 6.05 6.60001C6.26 6.38001 6.36 6.16001 6.35 5.96001C6.34 5.79001 6.26 5.63001 6.1 5.49001C5.94 5.34001 5.77 5.26001 5.6 5.28001Z" fill="#E4032E"/>
</g>
<defs>
<clipPath id="clip0_0_114">
<rect width="60.42" height="60" fill="white"/>
</clipPath>
</defs>
</svg>
