<svg width="64" height="60" viewBox="0 0 64 60" fill="none" xmlns="http://www.w3.org/2000/svg">
<g clip-path="url(#clip0_0_172)">
<path d="M61.58 21.66L51.51 20.2C51.3 18.93 50.73 17.83 49.82 16.92C48.63 15.73 47.13 15.13 45.36 15.13H40.08L33.09 0.969978C32.48 -0.270022 30.7 -0.270022 30.09 0.969978L23.1 15.12H13.13H11.62V16.63V19.9V20.21L1.60001 21.66C0.230008 21.86 -0.319992 23.55 0.670008 24.51L10.2 33.8V33.88V37.47V38.98H11.71H13.46V46.33V46.91L11.56 58C11.33 59.37 12.76 60.41 13.99 59.76L31.6 50.5L49.21 59.76C50.44 60.41 51.87 59.36 51.64 58L49.7 46.71C50.12 46.4 50.5 46.05 50.85 45.65C52.27 44 52.99 41.66 52.99 38.68C52.99 37.07 52.78 35.65 52.37 34.42L62.52 24.53C63.5 23.55 62.95 21.86 61.58 21.66ZM40.82 16.63H45.36C46.72 16.63 47.86 17.08 48.76 17.98C49.33 18.55 49.72 19.21 49.93 19.97C50.05 20.41 50.12 20.89 50.12 21.4C50.12 22.78 49.67 23.91 48.77 24.81C47.87 25.7 46.74 26.15 45.37 26.15H43V29.18V29.42H41.85H39.2V23.76C39.22 23.52 39.23 23.28 39.23 23.03C39.23 22.78 39.22 22.54 39.2 22.3V16.64H40.82V16.63ZM29.23 46.72C26.98 46.72 25.27 46.03 24.09 44.65C22.91 43.27 22.32 41.28 22.32 38.67C22.32 36.03 22.91 34.03 24.09 32.65C24.91 31.69 26 31.06 27.34 30.77C27.92 30.64 28.55 30.58 29.23 30.58C30.45 30.58 31.51 30.78 32.41 31.18C33.18 31.52 33.85 32.01 34.39 32.65C35.42 33.85 36 35.52 36.13 37.66C36.11 37.99 36.1 38.33 36.1 38.68C36.1 39.03 36.11 39.36 36.13 39.69C35.99 41.82 35.41 43.48 34.39 44.67C33.21 46.03 31.49 46.72 29.23 46.72ZM23.78 21.41C23.99 20.44 24.41 19.56 25.03 18.78C25.18 18.58 25.35 18.39 25.53 18.21C26.81 16.9 28.52 16.24 30.66 16.24C32.8 16.24 34.51 16.9 35.79 18.21C36.91 19.36 37.54 20.74 37.68 22.34V23.72C37.54 25.32 36.91 26.7 35.79 27.85C34.92 28.75 33.84 29.34 32.56 29.62C31.97 29.75 31.33 29.82 30.65 29.82C29.46 29.82 28.41 29.62 27.48 29.21C26.74 28.89 26.08 28.43 25.52 27.85C24.24 26.54 23.6 24.93 23.6 23.03C23.61 22.46 23.67 21.92 23.78 21.41ZM13.13 19.9V16.63H22.36H23.52V18.28V19.9H22.66H20.23V29.41H16.41V19.9H13.72H13.13ZM11.71 37.48V35.28V33.88C13.26 33.88 14.32 33.65 14.89 33.18C15.46 32.71 15.74 31.97 15.74 30.97H19.67V46.34H14.97V37.48H13.97H11.71ZM51.47 38.67C51.47 41.29 50.88 43.29 49.7 44.66C49.6 44.77 49.5 44.88 49.4 44.98C48.23 46.14 46.61 46.72 44.54 46.72C42.29 46.72 40.58 46.03 39.4 44.65C38.37 43.45 37.79 41.8 37.66 39.68C37.68 39.35 37.69 39.02 37.69 38.67C37.69 38.32 37.68 37.98 37.66 37.65C37.8 35.51 38.38 33.84 39.4 32.64C40.1 31.82 40.99 31.25 42.07 30.91C42.8 30.69 43.61 30.57 44.5 30.57C44.51 30.57 44.52 30.57 44.54 30.57C46.8 30.57 48.52 31.26 49.7 32.64C50.37 33.42 50.85 34.41 51.14 35.59C51.35 36.51 51.47 37.53 51.47 38.67Z" fill="#E3032E"/>
<path d="M30.66 26.42C31.65 26.42 32.41 26.09 32.95 25.44C33.49 24.79 33.76 23.98 33.74 23.02C33.75 22.06 33.49 21.25 32.95 20.6C32.41 19.95 31.64 19.62 30.66 19.62C29.69 19.62 28.93 19.95 28.39 20.6C27.85 21.25 27.58 22.06 27.58 23.02C27.58 23.98 27.85 24.79 28.39 25.44C28.93 26.1 29.68 26.42 30.66 26.42Z" fill="#E3032E"/>
<path d="M45.77 22.7C46.09 22.36 46.25 21.93 46.25 21.4C46.25 20.88 46.09 20.44 45.77 20.1C45.45 19.76 45.05 19.59 44.57 19.59H42.98V23.21H44.55C45.04 23.21 45.45 23.04 45.77 22.7Z" fill="#E3032E"/>
<path d="M29.23 34.2C28.39 34.2 27.77 34.5499 27.39 35.2599C27.01 35.9699 26.81 37.1099 26.81 38.6699C26.81 40.2199 27 41.3499 27.39 42.0499C27.77 42.7499 28.39 43.0999 29.23 43.0999C30.07 43.0999 30.69 42.75 31.08 42.04C31.47 41.33 31.67 40.2099 31.67 38.6699C31.67 37.1199 31.47 35.98 31.08 35.27C30.69 34.56 30.07 34.2 29.23 34.2Z" fill="#E3032E"/>
<path d="M44.53 34.2C43.69 34.2 43.07 34.5499 42.69 35.2599C42.31 35.9699 42.11 37.1099 42.11 38.6699C42.11 40.2199 42.3 41.3499 42.69 42.0499C43.07 42.7499 43.69 43.0999 44.53 43.0999C45.37 43.0999 45.99 42.75 46.38 42.04C46.77 41.33 46.97 40.2099 46.97 38.6699C46.97 37.1199 46.77 35.98 46.38 35.27C45.99 34.56 45.37 34.2 44.53 34.2Z" fill="#E3032E"/>
</g>
<defs>
<clipPath id="clip0_0_172">
<rect width="63.18" height="60" fill="white"/>
</clipPath>
</defs>
</svg>
