<svg width="68" height="60" viewBox="0 0 68 60" fill="none" xmlns="http://www.w3.org/2000/svg">
<g clip-path="url(#clip0_0_185)">
<path d="M67.69 53C67.59 52.96 67.5 52.91 67.4 52.86C67.16 52.74 66.91 52.61 66.64 52.6C65.51 52.56 64.27 52.56 62.75 52.59C62.44 52.6 62.34 52.53 62.26 52.2C62.09 51.57 61.9 50.93 61.71 50.32C61.52 49.68 61.32 49.01 61.14 48.35C60.94 47.61 60.54 47.29 59.78 47.29C59.78 47.29 59.78 47.29 59.77 47.29C57.59 47.28 55.32 46.91 53.07 46.14C52.67 46.01 52.5 45.82 52.39 45.39L44.25 23.38C44.43 23.32 44.61 23.26 44.78 23.2C45.31 23.02 45.81 22.85 46.31 22.65C49.17 21.53 51.12 20.28 52.64 18.58C55.13 15.8 55.15 12.34 52.69 9.56003C52.14 8.94003 51.5 8.35003 50.77 7.81003C48.67 6.25003 46.18 5.15003 42.93 4.36003C42.35 4.22003 41.93 3.96003 41.54 3.51003C38.79 0.300026 34.45 -0.849974 30.49 0.590026C26.57 2.02003 23.89 5.73003 23.82 9.83003C23.8 10.91 24.15 11.74 24.84 12.23C25.75 12.89 26.75 13.56 27.82 13.95C30.47 14.91 33.45 15.16 36.94 14.7C39.06 14.42 40.71 13.88 42.1 12.99C43.67 12 44.28 10.62 43.92 8.91003C43.78 8.24003 43.63 7.58003 43.46 6.88003C43.41 6.68003 43.36 6.47003 43.32 6.26003C43.52 6.32003 43.71 6.39003 43.9 6.45003C44.6 6.68003 45.26 6.89003 45.91 7.16003C47.86 7.95003 50.08 9.03003 51.66 11.09C53.15 13.02 53.15 15.06 51.67 16.99C51.24 17.54 50.72 18.16 50.11 18.55L49.62 18.86C48.42 19.63 47.18 20.42 45.86 20.91C38.45 23.66 30.71 23.79 22.87 21.28C20.25 20.44 18.22 19.25 16.68 17.64C14.52 15.39 14.51 12.79 16.63 10.52C18.35 8.68003 20.57 7.68003 22.31 7.01003C22.68 6.87003 23.05 6.74003 23.43 6.60003L24.18 6.33003L23.63 4.69003L23.42 4.76003C20.84 5.59003 17.88 6.75003 15.57 9.07003C13.97 10.68 13.22 12.37 13.29 14.26C13.36 16.11 14.2 17.77 15.86 19.31C18.12 21.41 20.85 22.49 22.98 23.2L23.58 23.4L23.57 23.44C23.53 23.61 23.49 23.76 23.46 23.88L15.41 45.47C15.31 45.85 15.15 46.02 14.76 46.15C12.54 46.91 10.34 47.29 8.2 47.29H8.19C7.32 47.29 6.88 47.62 6.68 48.42C6.49 49.16 6.27 49.9 6.05 50.62C5.88 51.17 5.72 51.71 5.57 52.26C5.5 52.53 5.42 52.58 5.16 52.58C4.4 52.57 3.63 52.57 2.86 52.57C2.27 52.57 1.67 52.57 1.08 52.57C0.69 52.57 0.44 52.66 0.25 52.84C0.08 53.05 0 53.32 0 53.68C0.01 54.41 0.01 55.14 0.01 55.87V56.97C0.01 58.06 0.25 58.29 1.33 58.29H17.7C21.41 58.29 25.12 58.29 28.83 58.3C29.03 58.3 29.26 58.37 29.38 58.46C29.68 58.69 29.97 58.96 30.26 59.22C30.38 59.33 30.5 59.44 30.62 59.55L30.68 59.61H37.17L37.23 59.55C37.35 59.44 37.47 59.33 37.59 59.22C37.87 58.96 38.16 58.69 38.47 58.46C38.6 58.36 38.82 58.3 39.02 58.3C42.56 58.29 46.11 58.29 49.65 58.29H54.7C58.59 58.29 62.61 58.29 66.57 58.27C66.86 58.27 67.12 58.14 67.38 58.02C67.49 57.97 67.59 57.92 67.69 57.88L67.83 57.83V53.05L67.69 53ZM31.39 57.83C31.24 57.83 30.92 57.57 30.88 57.42C30.69 56.64 30.17 56.53 29.68 56.53H29.67C27.38 56.54 25.1 56.54 22.81 56.54H1.79V54.38H59.24V52.6H54.41C49.32 52.6 44.23 52.6 39.15 52.61H39.14C38.72 52.61 38.62 52.54 38.52 52.15C38.42 51.75 38.24 51.38 38.03 50.96C37.97 50.84 37.91 50.72 37.85 50.6C38.19 50.53 38.52 50.46 38.86 50.39C39.81 50.19 40.7 50 41.62 49.88C44.44 49.52 47.26 49.95 50 50.38C50.45 50.45 50.91 50.52 51.36 50.59C53.78 50.94 56.24 51.22 58.63 51.5L59.84 51.64C60.2 51.68 60.27 51.74 60.33 51.99C60.38 52.26 60.47 52.51 60.55 52.76C60.62 52.97 60.68 53.17 60.73 53.38C60.89 54.07 61.3 54.37 62.02 54.36C63.01 54.34 63.98 54.34 65 54.35C65.34 54.35 65.68 54.35 66.02 54.35V56.54H60.08C52.85 56.54 45.63 56.54 38.4 56.53C37.81 56.53 37.05 56.53 36.91 57.57C36.87 57.65 36.59 57.83 36.43 57.84C34.57 57.88 32.92 57.87 31.39 57.83ZM33.88 50.4C33.89 50.4 33.9 50.4 33.9 50.4C35.27 50.4 36.51 51.34 36.79 52.55H31.03C31.3 51.36 32.52 50.41 33.88 50.4ZM58.34 49.77C57.19 49.65 56.01 49.52 54.85 49.37C53.64 49.2 52.43 49.02 51.22 48.84C49.49 48.58 47.71 48.31 45.94 48.09C45.17 48 44.39 47.95 43.62 47.95C41.53 47.95 39.45 48.29 37.41 48.97C36.7 49.21 36.17 49.34 35.63 48.96C38.29 46.24 40.95 45.03 44.04 45.17C45.98 45.25 47.78 45.95 49.45 46.65C51.76 47.62 54.27 48.56 56.98 48.89C57.11 48.91 57.25 48.92 57.38 48.94C57.92 49.01 58.48 49.09 59.04 49.05C59.5 49.02 59.55 49.2 59.62 49.57C59.64 49.69 59.67 49.81 59.71 49.92C59.25 49.87 58.8 49.82 58.34 49.77ZM33.93 48.17C31.04 45.02 27.81 43.44 24.24 43.44C22.07 43.44 19.77 44.03 17.37 45.21L25.3 23.87C31.01 25.13 36.81 25.13 42.54 23.87L50.49 45.22C44.19 42.07 38.62 43.06 33.93 48.17ZM22.8 45.3C23.36 45.18 23.93 45.12 24.49 45.12C26.37 45.12 28.24 45.81 30.16 47.2C30.7 47.59 31.21 48.03 31.74 48.49C31.91 48.64 32.08 48.78 32.25 48.93C31.63 49.29 31.1 49.23 30.52 49.03C27.53 47.99 24.34 47.72 20.75 48.19C18.91 48.43 17.05 48.73 15.24 49.01C13.87 49.22 12.5 49.44 11.13 49.63C10.4 49.73 9.67 49.78 8.9 49.83C8.65 49.85 8.39 49.86 8.13 49.88C8.16 49.75 8.19 49.64 8.2 49.53C8.24 49.2 8.34 49.06 8.81 49.05C11.45 48.97 14.12 48.35 17.47 47.03C19.43 46.26 21.09 45.67 22.8 45.3ZM16.03 50.66C17.24 50.45 18.48 50.24 19.71 50.07C23.66 49.52 26.69 49.66 29.5 50.52C29.64 50.56 29.78 50.61 29.92 50.66L29.1 52.55H7.35C7.35 52.53 7.36 52.52 7.36 52.5C7.42 52.24 7.48 51.99 7.58 51.77C7.61 51.73 7.75 51.66 7.85 51.66C10.62 51.59 13.37 51.12 16.03 50.66ZM41.19 11.5C39.62 12.5 37.85 12.84 36.32 13.03C35.75 13.1 35.17 13.13 34.71 13.16C34.54 13.17 34.38 13.18 34.25 13.19C31.82 13.15 29.81 12.96 27.91 12.14C25.2 10.97 25.35 10.32 25.85 8.14003C26.71 4.41003 30.12 1.76003 33.93 1.76003C34.15 1.76003 34.38 1.77003 34.61 1.79003C38.63 2.12003 41.92 5.42003 42.27 9.46003C42.32 10.36 41.99 10.98 41.19 11.5Z" fill="#E3032E"/>
<path d="M36.36 18.82C36.36 17.71 35.33 16.91 33.91 16.91C32.49 16.91 31.46 17.71 31.46 18.82C31.46 19.93 32.49 20.73 33.91 20.73C35.33 20.73 36.36 19.93 36.36 18.82ZM32.78 18.82C32.78 18.49 33.29 18.23 33.91 18.23C34.53 18.23 35.04 18.49 35.04 18.82C35.04 19.15 34.53 19.41 33.91 19.41C33.29 19.41 32.78 19.14 32.78 18.82Z" fill="#E3032E"/>
<path d="M48.3 16.44C49.39 15.53 49.67 14.25 48.96 13.4C48.63 13.01 48.16 12.79 47.61 12.79C47.02 12.79 46.4 13.04 45.85 13.5C45.45 13.83 45.15 14.23 44.97 14.65C44.69 15.33 44.77 16.03 45.19 16.54C45.52 16.93 45.99 17.15 46.54 17.15C47.13 17.15 47.75 16.9 48.3 16.44ZM46.69 14.52C47 14.26 47.34 14.12 47.6 14.12C47.74 14.12 47.86 14.16 47.93 14.25C48.14 14.5 47.92 15.03 47.44 15.43C47.13 15.69 46.79 15.83 46.53 15.83C46.39 15.83 46.27 15.79 46.2 15.7C46 15.45 46.22 14.92 46.69 14.52Z" fill="#E3032E"/>
<path d="M21.98 13.51C21.43 13.05 20.81 12.8 20.22 12.8C19.68 12.8 19.2 13.01 18.87 13.41C18.16 14.26 18.44 15.54 19.53 16.45C20.08 16.91 20.7 17.16 21.29 17.16C21.83 17.16 22.31 16.95 22.64 16.55C23.06 16.05 23.14 15.34 22.86 14.66C22.68 14.24 22.38 13.84 21.98 13.51ZM21.62 15.7C21.55 15.79 21.43 15.83 21.29 15.83C21.03 15.83 20.69 15.69 20.38 15.43C19.9 15.03 19.68 14.5 19.89 14.25C19.96 14.16 20.08 14.12 20.22 14.12C20.48 14.12 20.82 14.26 21.13 14.52C21.61 14.92 21.83 15.45 21.62 15.7Z" fill="#E3032E"/>
</g>
<defs>
<clipPath id="clip0_0_185">
<rect width="67.83" height="59.61" fill="white"/>
</clipPath>
</defs>
</svg>
