<svg width="61" height="60" viewBox="0 0 61 60" fill="none" xmlns="http://www.w3.org/2000/svg">
<g clip-path="url(#clip0_0_158)">
<path d="M0 53.55C0 41.36 0 29.17 0 16.98C0.53 15.35 1.7 14.69 3.4 14.86C3.4 12.67 3.4 10.57 3.4 8.45999C3.4 7.26999 3.61 7.06999 4.8 7.06999C9.23 7.06999 13.67 7.05999 18.1 7.07999C18.5 7.07999 18.77 6.93999 19.07 6.67999C19.84 6.02999 20.68 5.44999 21.47 4.81999C21.7 4.63999 21.93 4.40999 22.04 4.14999C23.11 1.75999 24.91 0.309994 27.52 0.0399939C30 -0.220006 32.02 0.749994 33.52 2.74999C33.63 2.89999 33.74 3.03999 33.88 3.22999C35.04 1.44999 36.59 0.369994 38.65 0.0699939C39.28 -0.0200061 39.72 0.229994 39.83 0.739994C39.93 1.24999 39.6 1.64999 38.98 1.77999C38.88 1.79999 38.79 1.81999 38.69 1.83999C36.69 2.26999 35.41 3.47999 34.9 5.45999C34.8 5.82999 34.8 6.22999 34.75 6.61999C34.67 7.13999 34.31 7.47999 33.85 7.43999C33.36 7.39999 33.07 7.11999 33.01 6.61999C33 6.42999 32.98 6.23999 32.96 6.03999C32.72 3.66999 30.69 1.79999 28.31 1.74999C25.87 1.69999 23.72 3.43999 23.45 5.83999C23.31 7.10999 23.3 8.41999 23.39 9.69999C23.53 11.57 25.03 12.86 26.9 12.87C31.55 12.88 36.2 12.88 40.85 12.87C42.89 12.86 44.38 11.36 44.41 9.30999C44.42 8.50999 44.4 7.70999 44.41 6.90999C44.44 5.14999 43.79 3.71999 42.38 2.64999C41.9 2.28999 41.81 1.78999 42.09 1.37999C42.39 0.949994 42.92 0.899994 43.43 1.25999C44.47 2.00999 45.2 2.99999 45.71 4.16999C45.82 4.42999 46.06 4.65999 46.29 4.83999C47.1 5.47999 47.91 6.10999 48.75 6.71999C49 6.89999 49.32 7.05999 49.61 7.06999C51.56 7.09999 53.52 7.07999 55.47 7.08999C56.3 7.08999 56.6 7.39999 56.61 8.21999C56.61 9.71999 56.61 11.23 56.61 12.73C56.61 13.43 56.61 14.13 56.61 14.84C56.74 14.86 56.82 14.87 56.89 14.88C59.15 14.97 60.01 15.85 60.01 18.1C60.01 29.58 60.01 41.07 60.01 52.55C60.01 54.64 59.01 55.65 56.93 55.65C51.23 55.65 45.52 55.65 39.82 55.65C38.73 55.65 37.94 56.22 37.89 57.2C37.81 58.67 37.07 59.54 35.74 60C31.91 60 28.08 60 24.25 60C24.07 59.93 23.89 59.85 23.72 59.78C22.81 59.37 22.27 58.67 22.15 57.68C21.97 56.09 21.49 55.65 19.91 55.65C14.39 55.65 8.86 55.62 3.34 55.67C1.72 55.68 0.56 55.15 0 53.55ZM50.45 8.86999C51.79 11.98 52.03 13.13 51.83 15.54C51.4 20.66 46.91 25.09 41.79 25.29C38.44 25.42 35.07 25.34 31.72 25.35C31.47 25.35 31.22 25.35 30.96 25.35C30.96 31.72 30.96 38.02 30.96 44.42C32.46 42.99 34.17 42.6 36.09 42.61C42.1 42.65 48.12 42.62 54.13 42.62C54.36 42.62 54.59 42.62 54.84 42.62C54.84 31.33 54.84 20.11 54.84 8.85999C53.38 8.86999 51.94 8.86999 50.45 8.86999ZM5.18 42.73C6.19 41.89 7.07 41.13 7.98 40.41C8.25 40.19 8.31 40.02 8.17 39.69C7.37 37.83 7.18 35.89 7.54 33.9C8.27 29.79 11.53 26.54 15.71 25.71C19.71 24.92 23.89 26.73 26.16 30.21C28.44 33.71 28.34 38.27 25.92 41.67C25.7 41.98 25.46 42.28 25.18 42.65C26.69 42.81 27.96 43.39 29.1 44.45C29.1 38.04 29.1 31.75 29.1 25.34C24.62 25.74 20.7 24.64 17.99 20.84C15.29 17.05 15.26 13.02 17.33 8.90999C13.25 8.90999 9.23 8.90999 5.19 8.90999C5.18 20.14 5.18 31.34 5.18 42.73ZM1.87 52.61C1.66 53.48 2.02 53.89 2.93 53.89C8.69 53.89 14.46 53.89 20.22 53.89C22.36 53.89 23.74 55.19 23.91 57.32C23.96 57.91 24.25 58.24 24.83 58.24C28.29 58.25 31.75 58.25 35.2 58.24C35.72 58.24 36.03 57.95 36.11 57.43C36.47 54.92 37.65 53.89 40.18 53.89C45.83 53.89 51.47 53.89 57.12 53.89C57.85 53.89 58.26 53.56 58.26 53C58.26 52.46 57.86 52.13 57.17 52.13C51.33 52.13 45.49 52.12 39.65 52.14C37.32 52.15 35.47 53.46 34.68 55.64C34.45 56.27 34.07 56.51 33.41 56.5C31.16 56.48 28.92 56.49 26.67 56.49C25.8 56.49 25.66 56.39 25.35 55.55C24.58 53.52 22.72 52.19 20.54 52.14C19.78 52.12 19.02 52.15 18.25 52.12C17.66 52.1 17.3 51.73 17.32 51.21C17.34 50.71 17.67 50.39 18.25 50.37C18.93 50.35 19.62 50.36 20.3 50.37C23.25 50.42 25.38 51.77 26.76 54.37C26.85 54.53 27.09 54.71 27.26 54.71C29.1 54.73 30.93 54.73 32.77 54.71C32.93 54.71 33.17 54.57 33.25 54.42C34.68 51.67 36.94 50.35 40.03 50.36C45.68 50.38 51.32 50.36 56.97 50.37C57.39 50.37 57.81 50.41 58.28 50.44C58.28 50.23 58.28 50.02 58.28 49.81C58.28 39.2 58.28 28.6 58.28 17.99C58.28 16.77 57.96 16.51 56.64 16.7C56.64 16.92 56.64 17.15 56.64 17.38C56.64 27.2 56.64 37.03 56.64 46.85C56.64 48.07 56.43 48.27 55.21 48.27C48.63 48.27 42.04 48.27 35.46 48.27C33.25 48.27 31.5 49.64 31.03 51.72C30.95 52.06 30.95 52.42 30.9 52.76C30.83 53.25 30.54 53.54 30.04 53.54C29.54 53.54 29.25 53.25 29.18 52.76C29.16 52.61 29.15 52.45 29.13 52.29C28.93 50.03 27.11 48.28 24.85 48.27C20.2 48.24 15.55 48.26 10.9 48.26C10.75 48.26 10.55 48.26 10.47 48.35C9.92 48.97 9.4 49.61 8.77 50.35C9.14 50.35 9.35 50.35 9.56 50.35C11.06 50.35 12.57 50.34 14.07 50.36C14.61 50.37 14.93 50.7 14.96 51.18C14.98 51.68 14.65 52.05 14.1 52.1C13.95 52.12 13.79 52.11 13.63 52.11C11.79 52.11 9.96 52.12 8.12 52.1C7.6 52.09 7.17 52.19 6.72 52.51C6.27 52.83 5.72 53.04 5.18 53.18C4 53.52 2.92 53.21 1.87 52.61ZM21.59 6.90999C21.45 6.97999 21.39 6.98999 21.35 7.02999C21.24 7.10999 21.13 7.18999 21.03 7.27999C18.91 9.05999 17.79 11.34 17.65 14.1C17.4 18.88 21.3 23.3 26.07 23.56C27.51 23.64 28.96 23.61 30.41 23.61C34.1 23.61 37.8 23.68 41.49 23.56C45.29 23.44 48.57 20.82 49.71 17.2C50.87 13.54 49.67 9.57999 46.67 7.19999C46.54 7.09999 46.4 7.01999 46.25 6.91999C46.22 7.00999 46.2 7.04999 46.2 7.07999C46.2 9.39999 46.2 11.73 46.19 14.05C46.19 17.4 43.97 19.64 40.62 19.65C36.13 19.66 31.63 19.67 27.14 19.64C26.41 19.63 25.65 19.51 24.97 19.27C22.9 18.52 21.63 16.58 21.61 14.25C21.58 11.82 21.59 9.39999 21.59 6.90999ZM17.61 44.19C22.28 44.18 26.04 40.39 26.03 35.71C26.02 31.05 22.23 27.29 17.54 27.29C12.88 27.3 9.11 31.09 9.12 35.77C9.14 40.45 12.92 44.21 17.61 44.19ZM23.4 13.34C23.08 16.2 24.58 17.9 27.32 17.9C31.69 17.9 36.07 17.9 40.44 17.9C40.79 17.9 41.14 17.88 41.49 17.83C43.51 17.52 44.86 15.43 44.31 13.39C43.03 14.49 41.52 14.67 39.92 14.65C35.88 14.62 31.84 14.62 27.79 14.65C26.21 14.66 24.72 14.47 23.4 13.34ZM54.83 44.39C54.57 44.39 54.34 44.39 54.11 44.39C48 44.39 41.88 44.39 35.77 44.39C35.48 44.39 35.18 44.39 34.89 44.41C32.9 44.54 31.07 46.32 30.98 48.21C31.04 48.19 31.1 48.18 31.14 48.14C32.45 46.95 34.01 46.5 35.76 46.5C41.89 46.52 48.03 46.51 54.16 46.51C54.38 46.51 54.61 46.51 54.83 46.51C54.83 45.76 54.83 45.11 54.83 44.39ZM8.98 41.84C7.03 43.47 4.9 45.24 2.78 47.02C1.53 48.07 1.41 49.74 2.5 50.82C3.59 51.9 5.26 51.78 6.31 50.54C7.55 49.06 8.78 47.58 10.02 46.09C10.57 45.44 11.11 44.78 11.48 44.35C10.62 43.5 9.83 42.7 8.98 41.84ZM1.76 45.58C2.2 45.22 2.52 44.9 2.88 44.66C3.3 44.38 3.41 44.03 3.41 43.53C3.4 34.8 3.4 26.07 3.4 17.35C3.4 17.12 3.4 16.89 3.4 16.67C2.01 16.54 1.76 16.76 1.76 18.06C1.76 26.98 1.76 35.91 1.76 44.83C1.76 45.04 1.76 45.25 1.76 45.58ZM29.01 48.23C29.04 48.16 29.06 48.12 29.06 48.09C29.07 48.05 29.06 48.01 29.05 47.97C28.64 46.2 27.59 45 25.83 44.55C25.11 44.36 24.32 44.4 23.57 44.4C23.24 44.4 22.88 44.5 22.58 44.65C21.11 45.44 19.56 45.89 17.89 45.94C16.27 46 14.72 45.67 13.22 45C12.82 45.49 12.43 45.95 11.96 46.51C12.35 46.51 12.56 46.51 12.77 46.51C16.63 46.51 20.5 46.51 24.36 46.51C24.77 46.51 25.18 46.52 25.58 46.57C26.9 46.75 28.02 47.35 29.01 48.23Z" fill="#E3032E"/>
<path d="M43.52 29.89C40.75 29.89 37.97 29.89 35.2 29.89C35 29.89 34.81 29.9 34.61 29.88C34.14 29.82 33.87 29.54 33.85 29.07C33.82 28.59 34.08 28.29 34.53 28.18C34.71 28.13 34.92 28.15 35.11 28.15C40.71 28.15 46.32 28.15 51.92 28.15C52.1 28.15 52.28 28.13 52.45 28.17C52.93 28.27 53.22 28.58 53.19 29.07C53.16 29.56 52.86 29.85 52.36 29.89C52.19 29.9 52.01 29.9 51.83 29.9C49.07 29.89 46.3 29.89 43.52 29.89Z" fill="#E3032E"/>
<path d="M43.55 34.44C40.74 34.44 37.93 34.44 35.11 34.44C34.92 34.44 34.71 34.46 34.53 34.41C34.08 34.29 33.83 33.99 33.86 33.51C33.89 33.03 34.16 32.76 34.63 32.7C34.8 32.67 34.98 32.69 35.16 32.69C40.75 32.69 46.33 32.69 51.92 32.69C52.08 32.69 52.23 32.68 52.39 32.7C52.89 32.75 53.17 33.04 53.22 33.53C53.26 33.99 52.91 34.38 52.41 34.44C52.24 34.46 52.06 34.45 51.88 34.45C49.1 34.44 46.32 34.44 43.55 34.44Z" fill="#E3032E"/>
<path d="M39.79 37.23C41.45 37.23 43.11 37.2 44.76 37.25C45.06 37.26 45.45 37.52 45.62 37.79C45.74 37.98 45.65 38.42 45.5 38.63C45.36 38.83 45.01 38.97 44.75 38.97C41.44 38.99 38.12 38.99 34.8 38.98C34.19 38.98 33.85 38.62 33.85 38.09C33.85 37.56 34.19 37.24 34.82 37.23C36.48 37.22 38.13 37.23 39.79 37.23Z" fill="#E3032E"/>
<path d="M17.51 42.56C13.74 42.53 10.73 39.46 10.76 35.68C10.79 31.89 13.87 28.9 17.7 28.93C21.43 28.96 24.44 32.08 24.39 35.87C24.35 39.59 21.26 42.6 17.51 42.56ZM17.56 40.8C20.37 40.81 22.63 38.57 22.63 35.76C22.64 32.95 20.39 30.69 17.59 30.69C14.78 30.68 12.53 32.92 12.52 35.73C12.51 38.54 14.75 40.79 17.56 40.8Z" fill="#E3032E"/>
</g>
<defs>
<clipPath id="clip0_0_158">
<rect width="60.02" height="60" fill="white"/>
</clipPath>
</defs>
</svg>
