<svg width="49" height="60" viewBox="0 0 49 60" fill="none" xmlns="http://www.w3.org/2000/svg">
<g clip-path="url(#clip0_0_135)">
<path d="M48.29 56.16C48.16 55.23 48.02 54.28 47.75 53.38C45.64 46.42 41.05 42.14 34.13 40.67C33.61 40.56 33.08 40.5 32.53 40.43C32.27 40.4 32.01 40.37 31.75 40.33L31.63 40.31V39.12C31.63 37.9 31.63 36.75 31.65 35.57C31.65 35.35 31.82 35.15 31.99 34.95C32.2 34.73 32.41 34.51 32.63 34.3C32.98 33.95 33.34 33.6 33.64 33.21C35.64 30.72 36.64 27.73 36.62 24.34C36.62 24.02 36.69 23.59 36.92 23.35C38.72 21.38 39.76 19 40 16.28C40.56 10 37.26 4.14003 31.59 1.33003C27.51 -0.689973 23.6 -0.449974 19.99 2.03003C19.79 2.17003 19.47 2.18003 19.25 2.15003C18.89 2.13003 18.56 2.07003 18.23 2.00003C17.71 1.90003 17.16 1.79003 16.63 1.76003C13.35 1.57003 10.59 2.87003 8.19 5.71003C7.91 6.04003 7.88 6.39003 8.1 6.74003C8.31 7.08003 8.63 7.20003 9.07 7.11003C9.16 7.09003 9.25 7.07003 9.35 7.05003L9.7 6.97003L9.69 7.21003C9.69 7.24003 9.69 7.29003 9.66 7.33003C9.6 7.42003 9.56 7.48003 9.51 7.53003C8.21 8.97003 7.47 10.74 7.32 12.77C6.99 17.31 8.11 21.56 10.67 25.39C10.87 25.69 11.01 26.04 11.05 26.36C11.48 29.76 12.98 32.64 15.53 34.94C15.74 35.13 15.9 35.48 15.91 35.78C15.94 36.55 15.93 37.34 15.93 38.1C15.93 38.39 15.93 38.67 15.93 38.96V40.35L15.36 40.41C11.76 40.74 8.66 42.03 6.16 44.24C2.5 47.48 0.490003 51.84 0.0300027 57.57C-0.0699973 58.8 0.380003 59.58 1.45 60H47.2C48.29 59.5 48.72 58.67 48.51 57.47C48.41 57.04 48.35 56.6 48.29 56.16ZM15.9 58.24H1.71L1.72 58.09C1.94 53.75 3.15 50.25 5.43 47.39C7.97 44.2 11.92 42.18 15.76 42.13H15.9V58.24ZM33.64 28.1C32.88 28.84 31.87 29.25 30.81 29.25C30.79 29.25 30.77 29.25 30.75 29.25C28.5 29.22 26.69 27.37 26.71 25.14C26.74 22.92 28.57 21.12 30.8 21.12C30.81 21.12 30.82 21.12 30.84 21.12C31.93 21.13 32.95 21.56 33.72 22.34C34.48 23.11 34.89 24.14 34.88 25.22C34.85 26.32 34.42 27.34 33.64 28.1ZM35.21 20.87L35.19 21.38L34.96 21.17C33.32 19.65 31.52 19.14 29.3 19.56L28.73 19.67L29.18 19.31C31 17.87 32.7 16.37 33.5 14L33.59 13.75L33.75 13.96C35.36 16.07 35.29 18.4 35.21 20.87ZM11.45 15.33C11.14 15.43 10.92 15.74 10.82 16.2C10.66 16.98 10.61 17.81 10.57 18.61C10.55 18.93 10.54 19.25 10.51 19.56C10.49 19.76 10.5 19.97 10.5 20.18C10.5 20.28 10.5 20.37 10.5 20.47V20.58L10.08 20.67L10.05 20.54C9.96 20.19 9.87 19.85 9.78 19.5C9.58 18.76 9.38 17.98 9.23 17.22C8.75 14.83 8.8 12.89 9.4 11.1C10.03 9.20003 11.24 7.86003 12.98 7.11003C13.23 7.00003 13.5 6.68003 13.62 6.37003C13.76 6.00003 13.49 5.69003 13.18 5.52003C12.92 5.37003 12.64 5.25003 12.35 5.11003C12.22 5.05003 12.08 4.99003 11.95 4.93003L11.72 4.82003L12.03 4.61003C12.12 4.55003 12.22 4.48003 12.32 4.42003C14.5 3.24003 16.73 3.07003 18.96 3.91003C19.66 4.18003 20.14 4.10003 20.8 3.61003C23.87 1.32003 27.22 1.07003 30.75 2.85003C35.42 5.21003 37.98 9.11003 38.37 14.42C38.49 16.03 38.04 18.27 37.34 19.52L37.13 19.91L37.08 19.47C37.04 19.15 37.01 18.84 36.97 18.52C36.9 17.83 36.82 17.12 36.7 16.43C36.41 14.67 35.66 13.31 34.42 12.28C33.87 11.82 33.31 11.66 32.86 11.82C32.39 11.98 32.06 12.47 31.91 13.19C31.82 13.62 31.65 14.08 31.37 14.59C30.76 15.73 29.44 17.02 28.52 17.61L28.4 17.69L28.32 17.56C28.08 17.15 27.84 16.74 27.6 16.33C27.08 15.43 26.55 14.5 25.94 13.65C24.94 12.27 23.62 11.49 22 11.34C21.08 11.26 20.12 11.44 18.99 11.93C16.96 12.8 15.46 14.29 14.54 16.34C14.5 16.43 14.46 16.53 14.41 16.65L14.22 17.08L14.07 16.96C13.91 16.82 13.75 16.69 13.59 16.56C13.24 16.28 12.92 16.01 12.6 15.72C12.21 15.37 11.78 15.22 11.45 15.33ZM12.3 21.4V17.83L12.52 17.96C12.63 18.03 12.74 18.1 12.85 18.17C13.09 18.32 13.34 18.48 13.59 18.62C14.1 18.91 14.57 18.99 14.95 18.84C15.33 18.7 15.64 18.32 15.83 17.77C16.62 15.49 18.18 13.97 20.49 13.23C21.74 12.83 22.89 13.09 23.9 13.98C25.34 15.26 26.08 16.96 26.61 18.46C26.87 19.19 27.17 19.64 27.96 19.81L28.32 19.89L28 20.09C26.63 20.9 25.72 21.97 25.22 23.37L25.19 23.46H22.4L22.37 23.37C21.7 21.48 20.16 20.07 18.24 19.6C16.24 19.11 14.16 19.68 12.53 21.18L12.3 21.4ZM12.68 25.04C12.72 22.8 14.59 21 16.87 21C16.89 21 16.91 21 16.93 21C18.05 21.01 19.1 21.47 19.89 22.28C20.67 23.08 21.08 24.13 21.07 25.23C21.03 27.51 19.15 29.36 16.87 29.36C16.86 29.36 16.85 29.36 16.84 29.36C15.71 29.35 14.66 28.91 13.88 28.12C13.08 27.31 12.66 26.21 12.68 25.04ZM14.48 30.96L14.34 30.7L14.63 30.75C14.82 30.78 15.01 30.82 15.2 30.86C15.59 30.94 15.99 31.02 16.39 31.05C19.63 31.25 22.23 29.03 22.59 25.81C22.62 25.53 22.72 25.19 23.21 25.15L23.34 25.14C23.5 25.13 23.65 25.11 23.81 25.11C24.77 25.11 24.87 25.2 25 26.15C25.21 27.75 26.14 29.19 27.54 30.11C28.98 31.05 30.73 31.33 32.35 30.87C32.47 30.84 32.59 30.8 32.71 30.76L33.17 30.62L33.1 30.87C32.36 33.46 27.95 36.17 24.19 36.34C24.04 36.35 23.89 36.35 23.73 36.35C19.94 36.35 16.2 34.18 14.48 30.96ZM22.25 47.18L22.41 47.26C22.56 47.33 22.71 47.42 22.86 47.51C23.17 47.69 23.47 47.87 23.75 47.87H23.76C24.04 47.87 24.34 47.71 24.65 47.53C24.8 47.44 24.96 47.36 25.13 47.28L25.29 47.21L25.51 48.31C25.72 49.32 25.93 50.36 26.12 51.4C26.16 51.62 26.08 51.9 25.94 52.05C25.29 52.74 24.7 53.32 24.13 53.82C24.05 53.89 23.91 53.93 23.76 53.93C23.61 53.93 23.45 53.89 23.37 53.82C22.82 53.33 22.26 52.78 21.6 52.09C21.45 51.93 21.36 51.65 21.39 51.45C21.59 50.37 21.81 49.29 22.02 48.25L22.25 47.18ZM22.16 44.31L22.3 44.21C22.42 44.13 22.53 44.05 22.65 43.97C22.94 43.77 23.21 43.59 23.49 43.42C23.64 43.33 23.89 43.33 24.04 43.42C24.34 43.59 24.62 43.79 24.91 43.99L25.39 44.31L25.26 44.43C24.76 44.89 24.29 45.32 23.81 45.76L23.71 45.85L22.16 44.31ZM23.84 41.29C23.74 41.3 23.64 41.3 23.54 41.3C23.07 41.3 22.58 41.2 22.12 41.11C21.87 41.06 21.62 41.01 21.37 40.98L17.67 40.45V36.5L17.88 36.6C21.83 38.56 25.68 38.56 29.67 36.6L29.88 36.5V40.46L29.76 40.48C29.19 40.56 28.63 40.65 28.06 40.73C26.67 40.94 25.25 41.16 23.84 41.29ZM17.65 42.34L17.66 42.19L21.33 42.72L20.61 43.28C20.27 43.54 20.08 43.85 20.06 44.17C20.04 44.47 20.17 44.76 20.44 45.03C20.75 45.34 20.83 45.65 20.74 46.1C20.69 46.35 20.63 46.6 20.58 46.85C20.42 47.61 20.25 48.39 20.04 49.17L19.94 49.54L19.77 49.2C19.64 48.93 19.5 48.66 19.37 48.39C18.44 46.54 17.48 44.65 17.65 42.34ZM17.67 58.24V56.08L20.01 58.24H17.67ZM29.87 58.25H27.52L29.87 56.07V58.25ZM29.9 52.8C29.9 53 29.79 53.19 29.68 53.35C28.34 55.48 26.5 57.05 24.21 58.03C24.09 58.08 23.94 58.11 23.78 58.11C23.62 58.11 23.46 58.08 23.33 58.03C21.03 57.05 19.19 55.47 17.86 53.34C17.76 53.19 17.66 53.02 17.65 52.85C17.64 52.09 17.64 51.32 17.64 50.56V49.71L17.96 49.61L18.13 49.95C18.22 50.12 18.31 50.3 18.4 50.47C19.52 52.48 21 54.19 22.8 55.54C23.48 56.05 24.04 56.05 24.72 55.54C26.65 54.09 28.2 52.26 29.31 50.11L29.33 50.07C29.38 49.98 29.43 49.88 29.48 49.8C29.52 49.74 29.58 49.72 29.64 49.71C29.66 49.7 29.68 49.7 29.71 49.69L29.9 49.63V50.58C29.91 51.31 29.91 52.06 29.9 52.8ZM28.46 47.89C28.26 48.32 28.05 48.76 27.87 49.2L27.83 49.29L27.46 49.28L27.28 48.38C27.09 47.47 26.91 46.56 26.74 45.65C26.71 45.49 26.85 45.33 26.96 45.2C27.35 44.75 27.51 44.4 27.47 44.1C27.44 43.79 27.2 43.48 26.71 43.12C26.68 43.1 26.65 43.07 26.59 43.01L26.27 42.7L29.87 42.19L29.88 42.34C30.08 44.43 29.25 46.19 28.46 47.89ZM31.64 58.24V42.19H31.78C35.41 42.21 39.1 43.82 41.89 46.59C44.89 49.57 46.62 53.65 46.78 58.09L46.79 58.24H31.64Z" fill="#E3032E"/>
<path d="M19.43 16.65C19.44 17.17 19.69 17.52 20.2 17.73C20.32 17.78 20.46 17.82 20.6 17.86C20.95 17.96 21.31 18.06 21.46 18.33C21.62 18.6 21.56 18.98 21.51 19.34C21.49 19.49 21.46 19.63 21.46 19.77C21.46 19.81 21.45 19.84 21.46 19.87C21.48 20.34 21.79 20.68 22.24 20.72C22.69 20.75 23.08 20.47 23.15 20.04C23.23 19.57 23.28 19.09 23.33 18.63C23.35 18.43 23.38 18.22 23.4 18.02C23.42 17.46 23.18 17.07 22.67 16.85L22.58 16.81C22.33 16.7 22.07 16.59 21.81 16.52C21.29 16.39 21.07 16.11 21.05 15.58C21.04 15.35 20.96 15.15 20.82 15.01C20.68 14.88 20.47 14.81 20.24 14.81C20.22 14.81 20.21 14.81 20.19 14.81C19.71 14.83 19.4 15.16 19.38 15.67C19.37 15.87 19.38 16.07 19.4 16.27C19.42 16.4 19.42 16.53 19.43 16.65Z" fill="#E3032E"/>
</g>
<defs>
<clipPath id="clip0_0_135">
<rect width="48.54" height="60" fill="white"/>
</clipPath>
</defs>
</svg>
